<svg xmlns="http://www.w3.org/2000/svg" viewBox="0 0 92 92"><defs><style>.cls-1{fill:none;}.cls-2{fill:#e7001d;}.cls-3{fill:#fff;}</style></defs><title>アセット 11</title><g id="レイヤー_2" data-name="レイヤー 2"><g id="レイヤー_1-2" data-name="レイヤー 1"><rect class="cls-1" width="92" height="92"/><path class="cls-2" d="M86,14.26a.65.65,0,0,1-.18.09l-.16,0-.19.06h0a.63.63,0,0,0-.17.09h0l-.14.14-.15.2a.32.32,0,0,0-.06.16v.16a.44.44,0,0,1,0,.17l0,.07s-.07.09-.1.1a.25.25,0,0,1-.12,0,.39.39,0,0,0-.17,0h-.17l-.2,0-.2.07-.15,0-.14,0-.13.05a.47.47,0,0,0-.15.1.39.39,0,0,1-.14.09.44.44,0,0,1-.18,0h0a.32.32,0,0,0-.18,0h0a.22.22,0,0,0-.09.15.15.15,0,0,0,.08.14h0l.1.06s0,.06-.06.1l0,0a.51.51,0,0,1-.16.11h0a.65.65,0,0,0-.16.09l-.12.07a.22.22,0,0,0-.1.11.37.37,0,0,1-.13.14L82,17a.63.63,0,0,1-.19.06h-.31a.32.32,0,0,1-.17-.09l-.11-.12a.3.3,0,0,0-.17-.08l-.17,0a.17.17,0,0,0-.15.08l-.08.14a.31.31,0,0,0,0,.18.23.23,0,0,0,.11.14l.16.08v0s0,0,0,0h-.25l-.13,0-.2,0-.16,0h-.24l-.2,0-.29,0a.59.59,0,0,1-.19,0l-.11,0a.71.71,0,0,1-.17-.09h0l-.17-.11-.1-.05a.51.51,0,0,0-.19,0h-.16l-.2,0-.41.13a.42.42,0,0,0-.16.1.4.4,0,0,1-.13.1l-.11,0a.3.3,0,0,0-.14.06l0,0-.16.12-.7.58-.15.14-.64.68-.14.15-.34.38-.13.16-.43.59-.11.17-.41.66a1.3,1.3,0,0,0-.09.18l-.19.5a.37.37,0,0,0,0,.17,1,1,0,0,1,0,.18v.1a.66.66,0,0,0,0,.19l.05.14a.57.57,0,0,1,0,.19l0,.31c0,.05,0,.14,0,.2l0,.18a.38.38,0,0,1-.08.17l0,0-.13.15-.06.07c-.06.07,0,.18-.08.27l-.41-.26c-.09-.06-.15-.16-.25-.21l-.3-.17-.17-.1L72,23.29l-.18-.09-.13-.06-.19,0h-.25a.36.36,0,0,1-.18-.07l-.14-.11a.49.49,0,0,0-.18-.08l-.14,0a.6.6,0,0,1-.18-.08l-.16-.11-.17-.1a1.69,1.69,0,0,1-.46-.27l-.12-.1A2,2,0,0,0,69,21.9a1.69,1.69,0,0,1-.41-.26l-.15-.13-.36-.37a.59.59,0,0,0-.25-.16c-.23-.07-.45-.05-.64-.21l-.35-.29-.16-.13-.23-.19a.6.6,0,0,0-.17-.09l-.34-.1-.2,0h-.5L65,20l-.48.15-.18.08-.46.29-.17.11-.62.46-.15.13-.43.45-.14.14-.07.07a.55.55,0,0,0-.11.16.1.1,0,0,1-.13.05L62,22a.19.19,0,0,1-.11-.13v-.06a.36.36,0,0,0-.06-.16.74.74,0,0,1-.09-.15l-.16-.34a.53.53,0,0,0-.12-.16l-.15-.13-.14-.15-.27-.37a.29.29,0,0,0-.16-.1l-.11,0a.57.57,0,0,0-.2,0l-.21.05a.32.32,0,0,1-.19,0l-.12-.06-.23,0a.23.23,0,0,0-.17.06l-.34.37a.82.82,0,0,0-.11.16l-.25.51a.85.85,0,0,0-.06.19l-.12.67a.3.3,0,0,0,0,.18l0,.05a.32.32,0,0,0,.15.11l.32.1a.5.5,0,0,1,.17.1l.09.09.16.12.57.33a.23.23,0,0,0,.18,0l.12,0a.51.51,0,0,1,.19,0h.19a.23.23,0,0,1,.13,0,.35.35,0,0,1,.11.14l0,0a.36.36,0,0,0,.1.13.2.2,0,0,1,.07.11.27.27,0,0,0,.09.13l.42.33a.33.33,0,0,1,.1.16v0a.33.33,0,0,0,.1.16l.21.16a.28.28,0,0,0,.14.06.37.37,0,0,1,.15,0l.35.19a.22.22,0,0,1,.1.12.18.18,0,0,0,.11.11h0a.27.27,0,0,1,.12.08s0,.07-.06.1l-.12.08a.23.23,0,0,1-.16,0,.12.12,0,0,0-.12.07l0,.09a.41.41,0,0,1-.13.14l-.08,0a.36.36,0,0,1-.14,0l-.15,0a.18.18,0,0,1-.16-.05.45.45,0,0,0-.16-.1l-.52-.19c-.09,0-.21,0-.3-.06s-.09-.15-.15-.22h0a.26.26,0,0,0-.14-.09.33.33,0,0,0-.17,0l0,0a.27.27,0,0,0-.11.15l0,.16a.32.32,0,0,1-.11.16l-.18.13a.58.58,0,0,1-.18.08l-.08,0a.64.64,0,0,0-.18.08h0a.24.24,0,0,0-.09.16l0,.45a.32.32,0,0,0,0,.18l0,0a.16.16,0,0,1,0,.14.42.42,0,0,1-.11.12l-.07,0-.18.09-.45.16a.3.3,0,0,0-.14.12l-.14.26a.24.24,0,0,1-.11.11.15.15,0,0,1-.13-.05h0a.26.26,0,0,0-.27-.1c-.1,0-.17.06-.25,0l-.11-.12a.53.53,0,0,1-.1-.17l-.2-.62a.47.47,0,0,1,0-.19l.09-.45,0-.15a.5.5,0,0,1,.07-.14l.14-.2a.36.36,0,0,0,.06-.18h0a.12.12,0,0,1,.1-.12.14.14,0,0,0,.11-.12V25.1c0-.05,0-.14,0-.2l0-.23a.53.53,0,0,0,0-.2l0-.11a1.2,1.2,0,0,0-.07-.19l0-.1-.09-.18-.29-.48a.27.27,0,0,0-.15-.11L57,23.24a.25.25,0,0,1-.14-.11L56.82,23a.57.57,0,0,1-.05-.14.49.49,0,0,0,0-.11.12.12,0,0,0-.12-.06.27.27,0,0,1-.17-.05l-.15-.12a.16.16,0,0,1,0-.16.17.17,0,0,0,0-.15.26.26,0,0,1,0-.15V22a.29.29,0,0,1,.06-.16.71.71,0,0,0,.1-.16l.15-.35a.43.43,0,0,0,0-.19l-.07-.49,0-.2-.05-.28a.24.24,0,0,1,0-.18l.17-.21a.35.35,0,0,1,.16-.1l.29-.07a.36.36,0,0,1,.18,0,.27.27,0,0,0,.16,0,.31.31,0,0,0,.13-.11v0a.5.5,0,0,1,.14-.14l.13-.08a.25.25,0,0,0,.1-.14.7.7,0,0,1,.07-.18l.06-.1a.1.1,0,0,1,.14,0l.09.05a.34.34,0,0,1,.12.14.17.17,0,0,0,.14.09h0a.13.13,0,0,0,.13-.09.56.56,0,0,0,0-.19h0a.21.21,0,0,1,.06-.17l.11-.1a.34.34,0,0,0,.09-.17h0a.54.54,0,0,1,.08-.18l.15-.21a.44.44,0,0,1,.15-.12l.3-.14a.27.27,0,0,0,.12-.14l0,0a.13.13,0,0,0,0-.14.37.37,0,0,1-.1-.14v0a.3.3,0,0,0-.09-.13.26.26,0,0,1-.09-.12.5.5,0,0,0-.1-.16l-.19-.19a.39.39,0,0,0-.17-.09h0a.24.24,0,0,1-.14-.11l-.1-.2a.33.33,0,0,1,0-.19l.12-.54a.15.15,0,0,1,.12-.11l.19,0a.21.21,0,0,0,.15-.1l0-.07a.14.14,0,0,1,.15-.06h0a.38.38,0,0,1,.16.1l.07.08.14.14.1.08.14.08a.22.22,0,0,1,.11.11.28.28,0,0,0,.14.12l.08,0,.19,0h0a.36.36,0,0,1,.18.06.15.15,0,0,1,.07.13.18.18,0,0,0,0,.14.21.21,0,0,0,.13.06.22.22,0,0,0,.12,0l.1-.08.11,0,.16,0,.19-.09a.53.53,0,0,1,.19,0c.15,0,.12.18.17.28s.14.1.25.12l.19.07.18.1a.25.25,0,0,0,.18,0l.19-.08.17-.1.26-.22a.91.91,0,0,0,.14-.15l.29-.41a.49.49,0,0,0,.07-.18L64,15a.42.42,0,0,0,0-.19l-.1-.22a.44.44,0,0,0-.11-.15l-.13-.13a.39.39,0,0,1-.06-.17V14a.31.31,0,0,1,0-.18l.09-.13a.18.18,0,0,0,0-.17l0-.09a1.41,1.41,0,0,1-.08-.18l-.18-.52a.2.2,0,0,1,0-.17l.06-.07a.31.31,0,0,0,.06-.17.25.25,0,0,1,.07-.16l.1-.09a.51.51,0,0,1,.17-.09h0a.66.66,0,0,0,.18-.09l0,0a.54.54,0,0,1,.16-.08.56.56,0,0,0,.17-.08l.15-.11a.42.42,0,0,0,.12-.15l.05-.13a1.4,1.4,0,0,0,.06-.19l.1-.44a.66.66,0,0,0,0-.2L65,10a1.75,1.75,0,0,1,0-.2V9.57c0-.06,0-.15,0-.2l0-.58a.28.28,0,0,1,.06-.18h0a.89.89,0,0,0,.1-.17l.23-.51a.68.68,0,0,0,0-.19l0-.58a.38.38,0,0,1,0-.15.45.45,0,0,0,.05-.15l0-.21a.9.9,0,0,0,0-.2l0-.37c0-.05,0-.14,0-.2l-.05-.66a.73.73,0,0,0,0-.19l-.58-1.35-.08-.18-.3-.7a1.14,1.14,0,0,1-.06-.19l0-.25a.45.45,0,0,1,0-.19l.13-.38.07-.19.1-.21a.27.27,0,0,0,0-.18l0-.11A1.2,1.2,0,0,1,64.5.89c0-.07,0-.14,0-.21h0s.06,0,.09,0a.17.17,0,0,1,.06.06s.06.1.08.15a.14.14,0,0,0,.09.06l.11,0a.34.34,0,0,1,.16,0h0a.51.51,0,0,0,.19,0l.06,0a.54.54,0,0,0,.16-.11l0,0a.35.35,0,0,0,.08-.17l0-.22a.4.4,0,0,1,.07-.18l0,0s.08-.1.13-.09L66,0c.05,0,0,.06.06.11v0a.38.38,0,0,0,.11.16h0a.51.51,0,0,1,.13.15l.13.26a.35.35,0,0,0,.14.13l.09,0,.17.1.17.11a.66.66,0,0,1,.14.14l.24.33.12.16.64.81.13.15.6.58a.48.48,0,0,1,.1.17v0a.73.73,0,0,0,.09.18l.05.07a.53.53,0,0,1,.08.18h0a.45.45,0,0,0,.08.17l.22.25a.48.48,0,0,1,.09.17v0a.46.46,0,0,0,.09.17l.72.82.14.14.1.09.14.14.44.52.15.13.17.12a.56.56,0,0,1,.13.14l0,.07a.36.36,0,0,0,.14.13l.19.08.18.09.88.54a.3.3,0,0,1,.11.15l0,.11a.25.25,0,0,0,.12.14l.05,0,.17.11.42.36a.24.24,0,0,0,.17,0,.56.56,0,0,1,.19,0l.26.06a.3.3,0,0,1,.15.11l.06.1.11.16.14.19.1.17a.16.16,0,0,0,.14.08l.36,0H76l.2,0h0a.13.13,0,0,0,.14-.06l.09-.17a.15.15,0,0,1,.15-.07l.24,0h.34c.05,0,.1,0,.1.07a.14.14,0,0,1,0,.08.29.29,0,0,0-.06.14l-.05.3a.15.15,0,0,0,0,.14.31.31,0,0,0,.15,0,.32.32,0,0,0,.17-.06l.06,0a.29.29,0,0,0,.09-.16v0a1.07,1.07,0,0,0,0-.2v0a.13.13,0,0,1,.08-.13.21.21,0,0,1,.14,0,.19.19,0,0,1,.07.13v.08l0,.19a.45.45,0,0,0,.07.17l.19.25a.33.33,0,0,0,.16.1l.27.07.2,0,.42.08.2,0,.24,0h.43l.2,0,.23-.06a.69.69,0,0,0,.18-.08l.11-.07a.26.26,0,0,0,.1-.13.33.33,0,0,1,.09-.14l.27-.24a.38.38,0,0,0,.1-.16l.05-.21a.31.31,0,0,1,.08-.14.35.35,0,0,1,.15-.06h0a.47.47,0,0,0,.18-.07L82,9.16,82.19,9l.19-.2.15-.13.2-.15a.4.4,0,0,0,.12-.15l.08-.22A.47.47,0,0,1,83,8l.11-.13.18-.22.11-.17,0,0s.07-.09.1-.09.07,0,.08.1l.07.37a.16.16,0,0,1,0,.14.18.18,0,0,0-.06.11.73.73,0,0,1,0,.16l-.09.23a.81.81,0,0,1-.08.16l-.11.12a.41.41,0,0,0-.1.15l0,.11a.72.72,0,0,0,0,.19h0a1.07,1.07,0,0,1,0,.18.56.56,0,0,1-.08.16l-.16.22-.13.15,0,0a.65.65,0,0,0-.11.16s-.2.48-.21.48a.58.58,0,0,0,0,.12.51.51,0,0,1,0,.19l0,.08a.55.55,0,0,1-.09.17.3.3,0,0,0-.06.18v.11a.41.41,0,0,0,.06.18l.1.16.1.17.13.28a.31.31,0,0,0,.13.13l.06,0,.19.07.51.14.27,0c.07,0-.06.22-.08.24s-.14,0-.24,0a.15.15,0,0,0-.09,0,.33.33,0,0,0-.05.12v0a.52.52,0,0,0,0,.2l.11.59.15.28a.9.9,0,0,0,.12.16l.19.19.15.13.14.1a.6.6,0,0,0,.18.08l.12,0h.16a.22.22,0,0,0,.12-.1l0,0a.72.72,0,0,1,.13-.15l0,0a.84.84,0,0,0,.13-.15l0,0a.75.75,0,0,1,.14-.14l.23-.18A.32.32,0,0,1,85.6,14h.12a.41.41,0,0,0,.18,0,.38.38,0,0,1,.18,0"/><circle class="cls-2" cx="7.68" cy="81.47" r="0.28"/><path class="cls-3" d="M67.54,40.53s-.12.06-.16,0,.07-.13.09-.15l.2-.22a.31.31,0,0,0,.09-.25.91.91,0,0,0-.09-.18.6.6,0,0,1-.06-.23s0-.15-.05-.15-.09.08-.12.12v0s-.07.12-.12.11,0-.09,0-.11l0-.2a2.56,2.56,0,0,0,0-.28v-.2c0-.11,0-.28,0-.39v0a.74.74,0,0,0-.06-.35c0-.09-.11-.24-.14-.34h0a1.39,1.39,0,0,1-.07-.38v-.1a.45.45,0,0,0-.13-.3,2.19,2.19,0,0,1-.25-.26l0,0a.69.69,0,0,1-.13-.25.29.29,0,0,1,.08-.2s.11-.1.06-.16a.44.44,0,0,0-.13-.09c-.08,0-.14-.13-.13-.19a1,1,0,0,1,.06-.19.29.29,0,0,0,0-.22l-.14-.23a.5.5,0,0,1-.06-.2.69.69,0,0,0-.1-.26l-.06-.09-.12-.17-.1-.14-.11-.14a1.2,1.2,0,0,0-.26-.28l0,0a.75.75,0,0,1-.11-.14s-.06-.09-.11-.1a.22.22,0,0,0-.13,0c-.05,0-.14,0-.2-.12l-.13-.2a1.82,1.82,0,0,1-.17-.35l-.08-.23a2.07,2.07,0,0,1-.08-.38l0-.46,0-.39,0-.42a1.12,1.12,0,0,1,0-.22c0-.06,0-.1,0-.16a.62.62,0,0,1,0-.26v-.35c0-.11,0-.28,0-.39l0-.38a1.92,1.92,0,0,1,.07-.38l.12-.39.11-.35a1.82,1.82,0,0,0,.06-.27.23.23,0,0,0,0-.13h0l-.17.14-.18.16a.76.76,0,0,1-.34.15H64a.62.62,0,0,1-.36-.08l0,0a.87.87,0,0,1-.25-.25.56.56,0,0,0-.15-.18.89.89,0,0,1-.18-.16.43.43,0,0,0-.28-.13.6.6,0,0,1-.32-.12L62.18,27l0,0a.07.07,0,0,0-.07,0,.62.62,0,0,0-.06.12l-.29.61a1.87,1.87,0,0,0-.12.37l-.19.95a1.06,1.06,0,0,0,0,.36c0,.09.07.17.11.17a.29.29,0,0,0,.15-.05.46.46,0,0,1,.19-.07.51.51,0,0,0,.19-.06l.16-.07.15-.06a.52.52,0,0,1,.26,0,.5.5,0,0,0,.34-.1l.19-.16a1.25,1.25,0,0,0,.21-.24c0-.06.13,0,.2,0h0a1,1,0,0,1,.19.33l.08.27a.87.87,0,0,1,0,.38l-.21.91a.72.72,0,0,1-.19.32l-.31.28a.17.17,0,0,1-.26,0h0a.74.74,0,0,0-.28-.23.51.51,0,0,1-.24-.24.37.37,0,0,0-.2-.21l-.19,0s-.09.08-.12.15a.52.52,0,0,0,0,.27.47.47,0,0,1-.07.3l-.11.17a.5.5,0,0,1-.19.19.44.44,0,0,1-.25-.07l-.12-.07a.51.51,0,0,1-.21-.29l-.21-1a1.48,1.48,0,0,1,0-.38l0-.34a.35.35,0,0,0-.14-.3l-.11-.07a.3.3,0,0,0-.32,0l-.07,0a.29.29,0,0,1-.32,0,1.19,1.19,0,0,1-.34-.25s0,0-.05,0,0,0,0,0c-.06.21-.13.42-.2.63a.62.62,0,0,0,0,.25,2,2,0,0,1,0,.26l0,.65a2.32,2.32,0,0,1,0,.38l-.11.47a.86.86,0,0,1-.12.28.26.26,0,0,1-.18.09.48.48,0,0,0-.25.13l0,0a.26.26,0,0,1-.29,0,.3.3,0,0,0-.31,0l-.08.06a1.51,1.51,0,0,0-.28.26L57,33c-.07.08-.07.18,0,.2a.47.47,0,0,1,.17.23l.07.18a2.58,2.58,0,0,1,.1.37l.05.29a.75.75,0,0,0,0,.16.33.33,0,0,0,.06.1.59.59,0,0,1,.12.26l.06.29a.91.91,0,0,1,0,.38l-.33,1.08a1.1,1.1,0,0,1-.19.33l-.26.29a.68.68,0,0,1-.21.17.47.47,0,0,1-.25-.06l-.19-.09c-.1,0-.16,0-.14.1l0,.21a.79.79,0,0,0,.14.31c.24.28.5-.16.77-.11l.11,0a.71.71,0,0,1,.32.18l.09.09a1,1,0,0,1,.19.33l.12.42a1.17,1.17,0,0,1,0,.38l-.19,1.74a.87.87,0,0,1-.13.35l-.21.29-.21.3a.92.92,0,0,0-.12.33L57,43v0a2.66,2.66,0,0,1-.09.38l-.46,1.41a1,1,0,0,1-.2.32l-.3.31a1.37,1.37,0,0,0-.22.31l-.32.69.77.46a.42.42,0,0,1,.14.16l.15.33a.49.49,0,0,0,.14.17l.27.19a.24.24,0,0,1,.09.18v.28a.25.25,0,0,1-.09.18l-.51.38a.35.35,0,0,0-.12.18l-.32,1.44a.28.28,0,0,0,0,.2l.35.46a.14.14,0,0,1,0,.06.15.15,0,0,1,0,.11l-.66.79a.32.32,0,0,0-.06.2l0,.58a.15.15,0,0,1-.1.14L54,53.3a.19.19,0,0,0-.13.14l-.15,1a.47.47,0,0,0,0,.21L54,55a.59.59,0,0,1,0,.22l0,.87a.16.16,0,0,0,.1.15l.38.14a.34.34,0,0,0,.21,0l1.16-.48a.74.74,0,0,0,.19-.12l.61-.57a.33.33,0,0,1,.19-.08h.79a.52.52,0,0,1,.21.05l.87.48a.42.42,0,0,1,.15.15l.25.49a.74.74,0,0,0,.13.18l.61.57a.28.28,0,0,0,.19.07l.21,0a.11.11,0,0,0,.1-.12v0a.42.42,0,0,0-.05-.16.16.16,0,0,1,0-.15l.05-.09a.16.16,0,0,1,.17-.07l.11,0,.22.05.7.2a.14.14,0,0,1,0-.12l.24-.1.06,0,.25-.1a.69.69,0,0,0,.17-.19.89.89,0,0,0,.12-.25,2.94,2.94,0,0,0,0-.29v-.24c0-.11,0-.28,0-.39V55c0-.11,0-.28.06-.38l0-.26.05-.33c0-.07,0-.22,0-.33l0-.42c0-.11,0-.22,0-.26a1.26,1.26,0,0,0,0-.26l0-.36,0-.39,0-.24c0-.11,0-.24,0-.29a.55.55,0,0,0-.1-.23.6.6,0,0,1-.1-.19,1,1,0,0,0,0-.15,1.2,1.2,0,0,0-.12-.24.76.76,0,0,1-.11-.27v0c0-.07,0-.18,0-.27V50c0-.11,0-.27,0-.37s0-.27,0-.37l0-.13a2.07,2.07,0,0,1,.13-.39,4.19,4.19,0,0,1,.14-.4h0a1.65,1.65,0,0,1,.11-.21l.05,0h0s0-.06,0-.15a.68.68,0,0,1,.1-.26l.15-.17a.28.28,0,0,1,.12-.07h.06l0,.07a.07.07,0,0,0,.08,0,.36.36,0,0,0,.15-.1.42.42,0,0,1,.15-.1l.2,0,.33,0a.49.49,0,0,1,.19,0c.08,0,.1.09.19.09h.1s0,0,0,0l0,.07a2.19,2.19,0,0,0,.08.22v0a.4.4,0,0,0,.29.25h.14a.1.1,0,0,0,.07-.05.05.05,0,0,0,0-.06s0,0,0,0a.12.12,0,0,1,0,0,.17.17,0,0,0,0-.11.19.19,0,0,0-.09-.1.11.11,0,0,1-.07-.06s0-.06.1-.08.11-.05.1-.06,0,0-.09,0a.1.1,0,0,1-.1-.05.12.12,0,0,0-.08-.07s0-.06,0-.11L65,47s0,0,0-.06a.15.15,0,0,0,0-.08s0,0,.06-.06a.26.26,0,0,0,.11-.19.33.33,0,0,0,0-.19s-.08,0-.13,0-.11,0-.11,0a.23.23,0,0,0-.08-.12s0-.06,0-.07a.64.64,0,0,0,.19-.1.16.16,0,0,0,0-.25.13.13,0,0,0-.08,0h-.08c-.05,0-.11,0-.11-.09a.16.16,0,0,1,0-.11.17.17,0,0,1,.1,0l.1,0a.16.16,0,0,0,.06-.07.28.28,0,0,1,.09-.1s.08,0,.1,0a.11.11,0,0,0,.07,0,0,0,0,0,0,0,0,.53.53,0,0,0,0-.1.41.41,0,0,0-.08-.13.12.12,0,0,1,0-.11,1,1,0,0,0,.06-.16.25.25,0,0,1,.07-.13l.08-.07a.45.45,0,0,0,.05-.19.25.25,0,0,1,0-.14s.07-.09.12-.09l.08,0,.07,0s0,0,0-.08a1,1,0,0,0-.06-.19l0-.09a1.28,1.28,0,0,1,0-.17,1.71,1.71,0,0,1,0-.21.07.07,0,0,1,0-.06h.08a.52.52,0,0,1,.09.13c0,.06.09,0,.13-.05a1.22,1.22,0,0,0,.08-.21.22.22,0,0,1,0-.09.06.06,0,0,1,0,0s0,0,0,0l0,0s0,0,0,0h.29a.33.33,0,0,0,.26-.14c0-.07,0-.15,0-.18a.21.21,0,0,1-.11-.2v0h0s.06,0,.1,0,.05,0,.07,0l0,0h0l0-.1s0-.07,0-.09l-.07,0a0,0,0,0,1,0-.06.28.28,0,0,1,.14-.08c.07,0,.12-.05.12-.07a.2.2,0,0,0-.07-.1c-.11-.09,0-.13.09-.17l.13,0h.07s0,0,0-.07a.26.26,0,0,0-.14-.11c-.06,0-.1-.06-.09-.09a.07.07,0,0,1,.06-.05.06.06,0,0,0,.05,0,.17.17,0,0,0,0-.1c-.06-.08,0-.1.06-.12l.11,0s0,0,0-.05-.08,0-.11-.08a.12.12,0,0,1,0-.14l.08-.06a.34.34,0,0,0,.1-.15,1.71,1.71,0,0,0,.07-.19s0-.06,0,0a.1.1,0,0,1,0,0s0,0,.07,0,.1-.08.15-.17v0c.05-.09.08-.18.07-.19A.45.45,0,0,0,67.54,40.53Z"/><path class="cls-3" d="M61.61,63.6a1.35,1.35,0,0,0-.13-.21l-.09-.14a2.59,2.59,0,0,0-.17-.25l-.14-.13a.8.8,0,0,1-.15-.19,2.22,2.22,0,0,1-.15-.32L60.66,62c0-.1-.09-.27-.12-.37l-.08-.26a1.51,1.51,0,0,0-.09-.26.42.42,0,0,1,0-.22c0-.08,0-.22.06-.31a2.09,2.09,0,0,1,.12-.42.61.61,0,0,0,.06-.28v-.31a.94.94,0,0,1,0-.23,1.77,1.77,0,0,0,.07-.22,2,2,0,0,1,.12-.34A1.5,1.5,0,0,1,61,58.3l.06-.06a.87.87,0,0,0,.05-.37.93.93,0,0,1,.11-.35,1.38,1.38,0,0,1,.18-.23.42.42,0,0,0,.1-.22,1.23,1.23,0,0,0,0-.26.22.22,0,0,1,0,0l-.7-.2-.22-.05-.11,0a.16.16,0,0,0-.17.07l-.05.09a.16.16,0,0,0,0,.15.42.42,0,0,1,.05.16v0a.11.11,0,0,1-.1.12l-.21,0a.28.28,0,0,1-.19-.07l-.61-.57a.74.74,0,0,1-.13-.18l-.13-.26-.12-.23a.42.42,0,0,0-.15-.15l-.87-.48a.52.52,0,0,0-.21-.05H56.8a.33.33,0,0,0-.19.08l-.61.57a.74.74,0,0,1-.19.12l-1.16.48a.34.34,0,0,1-.17,0h0l-.38-.14a.16.16,0,0,1-.09-.1l-.58-.25a.32.32,0,0,0-.21,0l-.14.05a.39.39,0,0,0-.16.13l-.62,1a.36.36,0,0,1-.17.13l-.09,0a.27.27,0,0,0-.15.14l0,.12a.19.19,0,0,1-.15.11l-.38,0a.14.14,0,0,1-.14-.1h0l-.15.21a.82.82,0,0,1-.16.16l-.49.35-.19.12-.18.11a.32.32,0,0,0-.12.17l-.16.64a.28.28,0,0,0,0,.2l.12.17a.22.22,0,0,0,.18.08l.57,0h.25a.17.17,0,0,1,.13.13l0,.1a.47.47,0,0,1,0,.21l-.1.27a1.63,1.63,0,0,1-.09.2l-.2.35a.18.18,0,0,0,0,.19l0,0a.59.59,0,0,1,.09.2l.08.35a.47.47,0,0,0,.1.19l.2.2a.28.28,0,0,1,0,.08.3.3,0,0,1,0,.12v.33a.18.18,0,0,1,0,.08l.47.24.2.09.28.12a.32.32,0,0,0,.21,0l.29-.12-.29.12.14.31a1,1,0,0,0,.12.19l.22.26.16.15.17.13,0,0a.43.43,0,0,1,.09.14l.06.17a.56.56,0,0,1,0,.22v.07a.72.72,0,0,1-.07.21l-.11.19a.32.32,0,0,1-.16.13l-.39.11a.53.53,0,0,0-.19.11l-.37.36h0l.12-.07a.24.24,0,0,1,.2,0l.32.16a.2.2,0,0,1,.1.16v.18a.3.3,0,0,1-.08.19l0,0a.34.34,0,0,0-.09.19V67a.26.26,0,0,0,.07.19l.51.47,0,0h0l.15-.19a.18.18,0,0,0,0-.11.91.91,0,0,1,0-.18.35.35,0,0,1,.1-.21,1.17,1.17,0,0,1,.28-.19l.13-.06.36-.15.08,0a1.59,1.59,0,0,1,.37-.08h.51a.59.59,0,0,1,.32.13.77.77,0,0,1,.17.29,1,1,0,0,1,0,.34l0,.26s0,.09,0,.09a.31.31,0,0,0,.13-.09,1,1,0,0,0,.15-.18.93.93,0,0,0,.07-.17.32.32,0,0,1,.11-.14.49.49,0,0,0,.13-.13.23.23,0,0,0,0-.11s-.09-.07-.19-.11h0l-.24-.11a.14.14,0,0,1,0-.13.18.18,0,0,1,.07-.11.37.37,0,0,0,.07-.22.7.7,0,0,1,.13-.33,1.32,1.32,0,0,1,.28-.24,1.05,1.05,0,0,0,.25-.21h0A.33.33,0,0,0,56.6,65a.42.42,0,0,0-.07-.17.17.17,0,0,1,0-.18.34.34,0,0,1,.18-.14.56.56,0,0,0,.2-.11.57.57,0,0,1,.24-.09h.1a.71.71,0,0,1,.36.07l.11.06a.64.64,0,0,1,.24.28l0,.05c0,.1,0,.21,0,.24l-.22.2-.19.19-.24.21a.72.72,0,0,0-.18.25l0,.07a.36.36,0,0,1-.21.2.27.27,0,0,0-.17.2.28.28,0,0,0,0,.25.45.45,0,0,1,.09.27v0a.43.43,0,0,1-.1.29.38.38,0,0,0-.08.29l0,.27c0,.11,0,.25.05.32a.66.66,0,0,0,.06.16s0,.1-.07.18a.47.47,0,0,1-.24.18c-.08,0-.14.05-.13.07s0,0,.09,0a.62.62,0,0,1,.19.06l.2.12a.27.27,0,0,0,.17,0,.56.56,0,0,0,.38-.43.64.64,0,0,1,.16-.31l.11-.11a1.05,1.05,0,0,1,.24-.18.57.57,0,0,0,.18-.15c.15-.2.37,0,.56-.1s.1-.06.15-.08.25,0,.36-.07l.15-.1a.57.57,0,0,0,.13-.24v0a1.34,1.34,0,0,0,0-.38l0-.66a1.16,1.16,0,0,1,.06-.38l.12-.34a1.46,1.46,0,0,1,.18-.33,2.32,2.32,0,0,1,.26-.28l.47-.41a.94.94,0,0,1,.34-.17l.28-.07a1.76,1.76,0,0,1,.33,0c.08,0,.09,0,0-.1l-.25-.23-.12-.11s0-.09-.07-.13l0,0,0,0,0,0a3.51,3.51,0,0,0,.39.3s0,0,.05,0v0C61.7,63.71,61.65,63.66,61.61,63.6Zm-.55-.25-.24-.23.24.23Z"/><path class="cls-3" d="M49,49.91h0a.19.19,0,0,1,.23.08.38.38,0,0,1,0,.28l-.06.15a.77.77,0,0,1-.18.25l-.15.12s-.09.08,0,.14a.18.18,0,0,0,.11,0,1,1,0,0,0,.33-.05.68.68,0,0,0,.28-.13l.38-.32a.76.76,0,0,0,.18-.25,4.32,4.32,0,0,1,.35-.83h0s0-.07,0-.11a.08.08,0,0,0-.09,0l-.1,0a.9.9,0,0,1-.32.08.15.15,0,0,1-.18-.13.58.58,0,0,1,.05-.3l.15-.3a1,1,0,0,0,.09-.3l0-.37s0-.14,0-.16a.1.1,0,0,0-.09,0,.21.21,0,0,0-.1.07l-.67.84-.18.26c0,.06-.07.14-.12.2s-.13.14-.13.26a1,1,0,0,0,0,.11.49.49,0,0,1,0,.17.18.18,0,0,0,0,.15S48.91,49.94,49,49.91Z"/><path class="cls-3" d="M46.16,56.09l-.73.25-.36.15-.09,0a.52.52,0,0,0-.22.28l-.06.2a1.15,1.15,0,0,1-.17.34v0a.53.53,0,0,1-.31.17l-.35,0a.73.73,0,0,1-.3,0,.71.71,0,0,0-.26,0,.38.38,0,0,1-.27-.15L42.76,57a.28.28,0,0,1,0-.31l.12-.17a.7.7,0,0,0,.11-.35v-.43a.11.11,0,0,0-.17-.11l-.12.06c-.1,0-.19,0-.2,0a.39.39,0,0,0-.14-.18.31.31,0,0,1-.13-.17.4.4,0,0,0,0-.15s0-.13.06-.22h0l.12-.23s.1,0,.19,0l.09.06a.24.24,0,0,0,.3,0l0,0a2.65,2.65,0,0,0,.24-.3h0a.63.63,0,0,1,.22-.21.61.61,0,0,1,.23,0,.37.37,0,0,0,.25-.14h0a.28.28,0,0,0,.07-.26.5.5,0,0,1,0-.3v0a.31.31,0,0,1,.25-.21h0a.2.2,0,0,0,.18-.22v0a.27.27,0,0,0-.16-.23.6.6,0,0,0-.29,0l-.33.1-.27.08a.48.48,0,0,0-.24.15.55.55,0,0,1-.24.16l-.5.19a.46.46,0,0,1-.25,0,.35.35,0,0,0-.24.07l-.28.18a.46.46,0,0,0-.18.3v0a1.21,1.21,0,0,1-.11.37l-.14.27a.36.36,0,0,0,0,.33l.08.12a.5.5,0,0,1,.09.3.69.69,0,0,0,.06.31l0,.06a1,1,0,0,1,.07.37l0,.62a.93.93,0,0,1-.11.36l-.92,1.59a2.73,2.73,0,0,1-.22.32l-.42.51a3,3,0,0,1-.27.28l-.69.6-.06,0c-.09.08-.16.06-.26.1s-.19.35-.24.5a.42.42,0,0,1-.17.23.45.45,0,0,0-.18.22l0,0a1.78,1.78,0,0,1-.19.34l0,0a.35.35,0,0,0,0,.33l0,.05a.94.94,0,0,1,.09.31.56.56,0,0,0,.13.29l.2.24a.6.6,0,0,1,.12.34V64a.36.36,0,0,1-.14.28c-.08,0-.15,0-.15-.11V64c0-.11-.06-.18-.11-.15a.32.32,0,0,0-.12.23l0,.25a.4.4,0,0,1-.2.28l-.17.08a1.06,1.06,0,0,0-.3.23l0,0c-.07.08-.15.14-.18.14a.48.48,0,0,1-.15-.1.34.34,0,0,0-.2-.08.26.26,0,0,0-.15,0s0,.08,0,.12.13.06.13.13-.09.13-.18.13a.3.3,0,0,1-.2-.05s-.12,0-.21,0a1.22,1.22,0,0,1-.27.05.26.26,0,0,1-.16-.07.22.22,0,0,1-.07-.11.17.17,0,0,1,0-.07,0,0,0,0,0,0,0s-.06,0-.09.07-.06.06-.06,0a.86.86,0,0,0-.08-.21.15.15,0,0,0-.22,0l.09.61a.34.34,0,0,0,.1.18l.48.4a.54.54,0,0,0,.2.1l.63.13.53-.34a.58.58,0,0,0,.15-.16l.21-.34a.33.33,0,0,1,.17-.13l.5-.14a.4.4,0,0,0,.18-.12l.12-.16.12-.19.22-.41a.25.25,0,0,1,.16-.11l.42-.06.1-.18.17-.27a.15.15,0,0,1,.17-.06l.31.1a.45.45,0,0,0,.21,0l.36-.1.22,0,.62-.1.21-.07.12-.06a.2.2,0,0,0,.1-.16v-.26a.24.24,0,0,0-.09-.18l-.29-.2a.21.21,0,0,1-.08-.18l0-.35,0-.33a.58.58,0,0,1,.07-.21l.32-.5a.29.29,0,0,0,0-.2l-.15-.54a.94.94,0,0,1,0-.22v0l.54.16a.57.57,0,0,1,.19.11l.19.17a.1.1,0,0,0,.15,0l.34-.44a1,1,0,0,1,.16-.16l.27-.21a.32.32,0,0,1,.2-.06l.84.09.22,0,.48.12.21.06.63.21,0,.28a.54.54,0,0,1,0,.22l-.34.83a.69.69,0,0,0,0,.22v.59a.41.41,0,0,1-.07.2l-.22.31a.36.36,0,0,1-.17.12l-.47.12a.15.15,0,0,0-.11.14v.18a.32.32,0,0,0,.08.19l.51.53a.76.76,0,0,1,.12.18l.46,1a.46.46,0,0,1,0,.21l-.18,1.33a.13.13,0,0,0,.09.14l.79.18a.37.37,0,0,1,.12.06l1.49-.86a.26.26,0,0,0,.11-.17l.15-1a.48.48,0,0,1,.09-.2l.16-.2a.34.34,0,0,0,.06-.2l-.06-1.09a.16.16,0,0,1,.1-.15l.4-.15a.27.27,0,0,0,.14-.14l.11-.32a.17.17,0,0,1,.15-.11h.18a.19.19,0,0,1,.16.1l0,.1a.21.21,0,0,0,.16.11l.35,0a.54.54,0,0,1,.21.07l.06,0a.22.22,0,0,0,.19,0l.18-.09a.2.2,0,0,0,.1-.16v-.33a.32.32,0,0,0-.08-.19l-.2-.2a.47.47,0,0,1-.1-.19l-.08-.35a.59.59,0,0,0-.09-.2l0,0a.18.18,0,0,1,0-.19l.2-.35a1.63,1.63,0,0,0,.09-.2l.1-.27a.47.47,0,0,0,0-.21l0-.1a.17.17,0,0,0-.13-.13H50.6l-.57,0a.22.22,0,0,1-.18-.08l-.12-.17a.28.28,0,0,1,0-.2l.16-.64a.32.32,0,0,1,.12-.17l.18-.11.19-.12.49-.35a.82.82,0,0,0,.16-.16l.15-.21-.1-.46.1.47a.14.14,0,0,0,.14.1l.38,0a.19.19,0,0,0,.15-.11l0-.12a.27.27,0,0,1,.15-.14l.09,0a.36.36,0,0,0,.17-.13l.62-1a.39.39,0,0,1,.16-.13l.14-.05a.32.32,0,0,1,.21,0l.58.25a.14.14,0,0,1,0,0l0-.87A.59.59,0,0,0,54,55l-.18-.43a.47.47,0,0,1,0-.21l.15-1A.19.19,0,0,1,54,53.3l1.44-.42a.15.15,0,0,0,.1-.14l0-.58a.32.32,0,0,1,.06-.2l.66-.79a.15.15,0,0,0,0-.18l-.35-.46a.28.28,0,0,1,0-.2l.32-1.44a.35.35,0,0,1,.12-.18l.51-.38a.25.25,0,0,0,.09-.18v-.28a.24.24,0,0,0-.09-.18l-.27-.19a.49.49,0,0,1-.14-.17L56.28,47a.42.42,0,0,0-.14-.16l-.77-.46-.29.63a1.5,1.5,0,0,0-.11.37l-.11.84a1.52,1.52,0,0,1-.11.37l-.28.6a.88.88,0,0,1-.24.29l-.65.47-.33.2-.4.2-.34.19-.39.23a.81.81,0,0,0-.26.27l-.18.34a2.1,2.1,0,0,0-.14.36l-.21.77a.75.75,0,0,1-.2.31l-.23.2a3.41,3.41,0,0,0-.28.27l-.92,1a1.91,1.91,0,0,1-.29.26l-.54.38a.6.6,0,0,1-.34.09.78.78,0,0,1-.25-.06l-.11,0a.52.52,0,0,0-.16.16l0,.05a1.17,1.17,0,0,1-.28.26l-.38.23a2.21,2.21,0,0,1-.35.16l-.79.27"/><path class="cls-3" d="M42.68,55.22l-.14,0h-.15a0,0,0,0,0,0,0s0,.09,0,.12l.06.12,0,0a.12.12,0,0,0,.07-.06.22.22,0,0,1,.11-.08l.1,0a.13.13,0,0,0,0-.08s0-.06,0-.06Z"/><path class="cls-3" d="M53.29,64.43a.42.42,0,0,0-.12-.17L53,64.13,52.83,64l-.22-.26a1,1,0,0,1-.12-.19l-.14-.31h0a.32.32,0,0,1-.21,0l-.28-.12-.2-.09-.47-.24a.19.19,0,0,1-.07.08l-.18.09a.22.22,0,0,1-.19,0l-.06,0a.54.54,0,0,0-.21-.07l-.35,0a.21.21,0,0,1-.16-.11l0-.1a.19.19,0,0,0-.16-.1h-.18a.17.17,0,0,0-.15.11l-.11.32a.27.27,0,0,1-.14.14l-.4.15a.16.16,0,0,0-.1.15l.06,1.09a.31.31,0,0,1,0,.11.3.3,0,0,1,0,.08l-.16.2a.48.48,0,0,0-.09.2l-.15,1a.26.26,0,0,1-.11.17l-1.49.86L46.53,67l-.79-.18a.13.13,0,0,1-.09-.14l0-.17.16-1.16a.46.46,0,0,0,0-.21l-.46-1a.76.76,0,0,0-.12-.18l-.51-.53a.32.32,0,0,1-.08-.19v-.18a.15.15,0,0,1,.11-.14l.47-.12a.36.36,0,0,0,.17-.12l.22-.31a.41.41,0,0,0,.07-.2V61.6a.69.69,0,0,1,0-.22l.34-.83a.54.54,0,0,0,0-.22l0-.28-.63-.21-.21-.06-.48-.12-.22,0-.84-.09a.32.32,0,0,0-.2.06l-.27.21a1,1,0,0,0-.16.16l-.34.44a.1.1,0,0,1-.15,0l-.19-.17a.57.57,0,0,0-.19-.11L41.64,60v0a.94.94,0,0,0,0,.22l.15.54a.29.29,0,0,1,0,.2l-.32.5a.58.58,0,0,0-.07.21l-.08.69a.21.21,0,0,0,.08.18l.29.2a.24.24,0,0,1,.09.18v.26a.2.2,0,0,1-.1.16l-.12.06-.21.07-.62.1-.22,0-.36.1a.45.45,0,0,1-.21,0l-.31-.1a.15.15,0,0,0-.17.06l-.17.27-.11.2-.07.15a.22.22,0,0,0,0,.19l.68,1a.34.34,0,0,1,0,.2l-.07.47c0,.06,0,.16,0,.22l-.1.44a.17.17,0,0,0,.07.17l.06,0h0a.21.21,0,0,1,.07.16l-.07,1a.41.41,0,0,1-.08.2l-.59.71a.22.22,0,0,1-.18.07l-.58-.08a.19.19,0,0,0-.17.08l-.42.64.06.14.2.37a.32.32,0,0,1,0,.21l-.06.22a.17.17,0,0,0,.06.17l.5.36a.25.25,0,0,1,.09.18v0a.15.15,0,0,1-.11.14l-.27.06a.17.17,0,0,0-.12.14l0,.44a.39.39,0,0,0,0,.21l0,0a.57.57,0,0,1,.07.21l0,.39a1,1,0,0,1,0,.22l-.11.57a.29.29,0,0,1-.12.17l-.23.14-.18.14-.64.59a.23.23,0,0,0-.06.19l.06.38a.31.31,0,0,0,.11.18l.65.47h0a1.13,1.13,0,0,0,.13-.24L38,75.7l.15-.36,0-.1a.77.77,0,0,1,.24-.28l.1-.06.22-.15a.21.21,0,0,1,.1,0s0-.06,0-.12a.22.22,0,0,1,0-.14s.06,0,.11,0a.17.17,0,0,0,.11,0s0-.07,0-.14a.69.69,0,0,0-.09-.26.29.29,0,0,0-.17-.14s-.08,0-.08-.07.08-.11.17-.16l0,0a.44.44,0,0,0,.18-.19.53.53,0,0,1,.08-.17.81.81,0,0,1,.23-.17l0,0,.33-.17.32-.19a.57.57,0,0,1,.22-.1l.09,0,.06,0s0,0,.06,0,0,0,.06,0,0,0,0,.06a.05.05,0,0,0,.06,0,.59.59,0,0,0,.18-.15h0a.43.43,0,0,0,.12-.19s0-.05.11-.06.12,0,.13,0a.1.1,0,0,1,0,.08l-.06.07s.06,0,.16,0a.42.42,0,0,1,.22,0,.25.25,0,0,0,.17,0c.07,0,.13,0,.14,0a.09.09,0,0,1,0,.07.08.08,0,0,0,0,.08s0,0,0,0,0,0,0-.05,0-.06.1-.07.1-.11.09-.21h0c0-.11,0-.2,0-.2s.05,0,.05,0,0,0-.08-.07a.08.08,0,0,1,0-.12.21.21,0,0,1,.07-.08s0,0,0,0a.06.06,0,0,0,.05,0,.05.05,0,0,0,0-.06.28.28,0,0,1,0-.09.59.59,0,0,0,0-.14.2.2,0,0,0,0-.13l-.12,0a.15.15,0,0,1-.11-.05L42,71.48,42,71.4a.35.35,0,0,0-.19-.08,1.81,1.81,0,0,1-.34-.11l-.1,0a.63.63,0,0,1-.24-.19.55.55,0,0,0-.14-.16.69.69,0,0,0-.27-.05h0c-.11,0-.2,0-.22-.06a.53.53,0,0,1,0-.22c0-.09,0-.19,0-.21l-.1-.06s0-.09,0-.17a3.08,3.08,0,0,1,.11-.32,1.4,1.4,0,0,1,.19-.3,1.23,1.23,0,0,0,.18-.33l0-.05a.87.87,0,0,0,.06-.25.64.64,0,0,1,.08-.24l0,0a2.16,2.16,0,0,0,.14-.33l.09-.27.05-.12-.06-.06.05.06a1.21,1.21,0,0,1,.13.12l0,.06,0,.07a.24.24,0,0,0,.21,0L42,68c.06,0,.11,0,.13,0a.33.33,0,0,1,0,.13.51.51,0,0,1-.05.21.55.55,0,0,1-.15.18.3.3,0,0,0-.09.22.72.72,0,0,0,.05.27.83.83,0,0,0,.1.16.43.43,0,0,1,0,.24v.07a.8.8,0,0,0,.06.37h0a.74.74,0,0,0,.32.3s0,0,.06,0a.06.06,0,0,0,0,0c0-.06,0-.13,0-.19s0-.24,0-.33,0-.22,0-.29a.25.25,0,0,1,.06-.2.31.31,0,0,0,.1-.16c0-.05,0-.1.07-.1s0,0,0,.08a1.75,1.75,0,0,1-.06.27.24.24,0,0,0,.1.26.71.71,0,0,1,.19.14.14.14,0,0,0,.13,0l.16,0a.27.27,0,0,1,.14,0l.13,0,.13,0s.1,0,.14-.08a.25.25,0,0,1,.2-.09l.24,0a.25.25,0,0,1,.17.08.4.4,0,0,1,0,.22.21.21,0,0,1-.11.18,1.17,1.17,0,0,0-.26.15l-.1.07a2.27,2.27,0,0,1-.3.18l-.23.1-.16,0a.48.48,0,0,0-.2.14l-.16.16s0,0,0,.05a.31.31,0,0,0,.16,0l.3-.05.35-.1.39-.13.37-.12.4-.13.3-.08h.31l.65,0,.29,0,.13,0a.64.64,0,0,0,.23,0H47l.32,0,.29,0,.35.09h0l.35.12.3.12a.33.33,0,0,0,.16,0s0,0,0-.06a.32.32,0,0,1-.05-.1,1.22,1.22,0,0,1,0-.25v0a1.19,1.19,0,0,1,0-.28.71.71,0,0,1,.19-.21h0a1,1,0,0,0,.18-.17,1.33,1.33,0,0,0,.07-.24l0-.13a1.58,1.58,0,0,1,.12-.34.73.73,0,0,1,.25-.25l.05,0,.28-.12a.29.29,0,0,0,.14-.22v0a.45.45,0,0,1,.18-.27.52.52,0,0,0,.18-.17.49.49,0,0,1,.22-.16l.08,0,.29-.14a.52.52,0,0,1,.3,0l.09,0a1.15,1.15,0,0,1,.33.13.32.32,0,0,1,.14.16.23.23,0,0,0,0,.11.58.58,0,0,1,.08.15c0,.06,0,.11,0,.12l-.09,0-.05,0a.08.08,0,0,1-.05,0,.17.17,0,0,0-.13,0,.4.4,0,0,0-.15,0,.55.55,0,0,0-.09.22h0a1.62,1.62,0,0,0,0,.38h0a.91.91,0,0,1,0,.23.1.1,0,0,0,0,.05h.06s0,0,0,.06a.15.15,0,0,1,0,.09s0,0,0,0l0,0a.48.48,0,0,1,0,.18,1.54,1.54,0,0,0,0,.22.19.19,0,0,1,0,.08l-.08.08a.18.18,0,0,0-.08.1.62.62,0,0,0,.11.21l0,0,.22.29.13.14h.05l.12-.08.24-.19.18-.13h0a.07.07,0,0,1,0,0s0,0,0,0l0,0a.3.3,0,0,0,0-.12,1.8,1.8,0,0,1,.07-.23.66.66,0,0,1,.09-.17l0,0a.72.72,0,0,0,.1-.17l.14-.31a.43.43,0,0,1,.12-.17l.11-.08.08,0s0-.09,0-.2h0a.65.65,0,0,0,0-.21l0,0,0,0-.06,0s0-.1,0-.2v-.13A.39.39,0,0,0,53,68a.16.16,0,0,1-.07-.13.14.14,0,0,1,.07-.09.73.73,0,0,0,.15-.14l-.51-.47a.26.26,0,0,1-.07-.19v-.16a.34.34,0,0,1,.09-.19l0,0a.3.3,0,0,0,.08-.19v-.18a.2.2,0,0,0-.1-.16l-.32-.16a.24.24,0,0,0-.2,0l-.12.07h0l.37-.36a.53.53,0,0,1,.19-.11l.39-.11a.32.32,0,0,0,.16-.13l.11-.19a.72.72,0,0,0,.07-.21v-.07a.56.56,0,0,0,0-.22Zm-6.58,2.72,0,0Zm5.2-1.08h0ZM52,66l.1,0Z"/><path class="cls-3" d="M54.67,69.64a.2.2,0,0,0-.15,0c-.14,0-.08.3-.08.4a.2.2,0,0,0,.12.17l.1,0a.08.08,0,0,0,.12-.08v-.29A.25.25,0,0,0,54.67,69.64Z"/><path class="cls-3" d="M54,71.85h0a.2.2,0,0,0-.07.22l0,.11c0,.08.06.08.08,0l.05-.25C54.07,71.84,54,71.81,54,71.85Z"/><path class="cls-3" d="M39.78,67l-.06,0a.17.17,0,0,1-.07-.17l.1-.44c0-.06,0-.16,0-.22l.07-.47a.34.34,0,0,0,0-.2l-.68-1a.22.22,0,0,1,0-.19l.07-.15v0l-.42.06a.25.25,0,0,0-.16.11l-.22.41-.12.19-.12.16a.4.4,0,0,1-.18.12l-.5.14a.33.33,0,0,0-.17.13l-.21.34a.58.58,0,0,1-.15.16l-.53.34-.63-.13a.54.54,0,0,1-.2-.1l-.48-.4a.34.34,0,0,1-.1-.18l-.09-.61h0a1.05,1.05,0,0,1-.34.2s-.06,0-.05,0l0,0c.07,0,.15.07.15.16s0,.08-.1.11-.12,0-.14-.09a.5.5,0,0,0-.2-.25h0A.88.88,0,0,0,34,65a.18.18,0,0,1-.14-.1s0-.15.12-.22l.2-.19a.43.43,0,0,0,.13-.3.49.49,0,0,0-.16-.29l0,0a.4.4,0,0,0-.34-.06l-.3.1a1.18,1.18,0,0,0-.32.18.37.37,0,0,1-.26.09l-.09,0a.43.43,0,0,0-.12.12.49.49,0,0,1-.46.12h-.06l-.26-.06a.73.73,0,0,0-.26,0h-.05l-.39,0-.29,0a.66.66,0,0,1-.28,0,.35.35,0,0,0-.25.05l-.41.23-.2.09,0,.52a.53.53,0,0,0,.07.21l.25.39a1,1,0,0,1,.09.2l.12.4a.17.17,0,0,1-.06.17l-.29.21a.47.47,0,0,0-.13.17l-.16.39a1.1,1.1,0,0,1-.11.19l-.39.54a.49.49,0,0,0-.08.2l0,.37a.41.41,0,0,0,0,.21l0,.08a.27.27,0,0,1,0,.2l-.08.21a.28.28,0,0,0,0,.2l.22.41.15,0a.91.91,0,0,1,.28,0c.07,0,.19,0,.23-.07s.07-.1.09-.1l.05,0s.06,0,.12,0a.39.39,0,0,0,.16-.06.23.23,0,0,1,.14,0,1.7,1.7,0,0,0,.27,0l.17,0a1.84,1.84,0,0,1,.38,0h0l.14,0a.59.59,0,0,1,.3.2.45.45,0,0,0,.15.17l.13,0a1,1,0,0,1,.24.11.74.74,0,0,0,.19.1l.32.11.11,0a.67.67,0,0,0,.37,0h0l.36-.15.14-.07a1.41,1.41,0,0,1,.34-.11,1.06,1.06,0,0,1,.27,0h.12a.47.47,0,0,1,.27.22h0a.81.81,0,0,1,.07.37v0a.79.79,0,0,1-.14.35l-.32.4-.23.31-.06.08a1.39,1.39,0,0,1-.25.26,1.34,1.34,0,0,1-.32.16l-.18.06c-.1,0-.19.11-.2.17a.2.2,0,0,0,.1.18l0,0a.17.17,0,0,1,.06.13.25.25,0,0,0,0,.16.32.32,0,0,0,.12.09.18.18,0,0,1,.1.13.29.29,0,0,1-.13.22l0,0a.66.66,0,0,0-.19.22c0,.06,0,.15.12.21s.13.15.09.21a.6.6,0,0,1-.22.17.33.33,0,0,0-.17.23.38.38,0,0,1-.08.21s0,.08,0,.13a.32.32,0,0,0,.21.08.72.72,0,0,1,.22,0,.57.57,0,0,1,.19.2l.06.1a.83.83,0,0,0,.27.26l.36.19a.5.5,0,0,1,.22.24.2.2,0,0,1,0,.2.17.17,0,0,0-.07.1.12.12,0,0,0,.07.08.52.52,0,0,1,.13.22A.65.65,0,0,0,35,77s.42.26.44.26l.87.2a.51.51,0,0,1,.24.12s.07.06.1,0a.76.76,0,0,0,.14-.19h0a.67.67,0,0,1,.28-.24l0,0a.57.57,0,0,0,.24-.18.27.27,0,0,1,.08-.09s.07,0,.11,0h0s0,0,0,0l0,0s0-.1,0-.14a.39.39,0,0,1,.06-.15.2.2,0,0,1,.08-.06s0-.06.06-.13a.47.47,0,0,1,.07-.17l-.65-.47a.31.31,0,0,1-.11-.18l-.06-.38a.17.17,0,0,1,0,0,.23.23,0,0,1,.06-.14l.64-.59.18-.14.23-.14a.29.29,0,0,0,.12-.17l.11-.57a1,1,0,0,0,0-.22l0-.39a.57.57,0,0,0-.07-.21l0,0a.39.39,0,0,1,0-.21l0-.44a.17.17,0,0,1,.12-.14l.27-.06a.15.15,0,0,0,.11-.14v0a.25.25,0,0,0-.09-.18l-.5-.36a.17.17,0,0,1-.06-.17l.06-.22a.32.32,0,0,0,0-.21L37.89,70l0-.09-.06-.14.42-.64a.19.19,0,0,1,.17-.08l.58.08a.22.22,0,0,0,.18-.07l.59-.71a.41.41,0,0,0,.08-.2l.07-1A.21.21,0,0,0,39.78,67Zm-2,2.7,0,.07Z"/><path class="cls-3" d="M32.73,70.83l-.36.36-.17.15-.18.13a.57.57,0,0,0-.15.17l-.18.34-.12.23a.54.54,0,0,1-.19.2l-.07.06a.11.11,0,0,0,0,.09.11.11,0,0,0,.08.08l.12,0c.19,0,0,.21,0,.27a.08.08,0,0,0,0,.13l.23.08a.24.24,0,0,0,.2,0l0,0,.2-.11.32-.13a.11.11,0,0,0,.06-.15l-.09-.19a.53.53,0,0,1,0-.22l0-.34a.59.59,0,0,1,.06-.21l.38-.67a.23.23,0,0,0,0-.2A.08.08,0,0,0,32.73,70.83Z"/><path class="cls-3" d="M25.5,72s-.07-.05-.1,0a.13.13,0,0,0,0,.15h0s.09.06.11,0,0-.08,0-.12Z"/><path class="cls-3" d="M30.32,66.43,30.2,66a1,1,0,0,0-.09-.2l-.25-.39a.53.53,0,0,1-.07-.21l0-.52-.08,0a1.55,1.55,0,0,0-.29.11L29,65a1.07,1.07,0,0,1-.37.09H28a1.27,1.27,0,0,0-.3,0l-.23.06-.32,0-.44,0a1.78,1.78,0,0,1-.38,0l-.24-.05a1.18,1.18,0,0,0-.27,0,.93.93,0,0,0-.25.1l-.26.14-.24.15a.25.25,0,0,1-.16,0l-.28-.06-.13,0a.43.43,0,0,1-.26-.23l0-.07a.31.31,0,0,1,0-.23l0-.05s0-.05,0-.07h0l-.31.07h-.16a.1.1,0,0,1-.07,0,.42.42,0,0,0-.13-.11c-.05,0-.16,0-.23.09h0a1.1,1.1,0,0,1-.19.16l-.16,0a.3.3,0,0,0-.19.09.49.49,0,0,1-.27.1h-.1l-.26,0a1.21,1.21,0,0,0-.21.15l-.07.06a.61.61,0,0,1-.29.14c-.06,0-.14-.06-.18,0s-.07.13-.06.18a1.93,1.93,0,0,1,0,.29h0a.46.46,0,0,1-.15.32l-.76.63c-.1.08-.28.09-.36.2a3.06,3.06,0,0,0-.15.29.71.71,0,0,1-.23.23,3.73,3.73,0,0,0-.29.31c-.16.14-.37.17-.52.34a.55.55,0,0,1-.14.13.44.44,0,0,0-.13.12c-.08.1-.21.16-.28.27s-.06.13-.13.16l-.07,0c-.1,0-.13.19-.2.27a.68.68,0,0,1-.16.14c-.07,0-.07.12-.13.15l-.08,0-.06,0s0,.07,0,.1-.07.06-.1.1a1.06,1.06,0,0,0,0,.1.47.47,0,0,1-.22.19l0,0a1.16,1.16,0,0,1-.37.09h0a.55.55,0,0,0-.3.11l-.07.06a.17.17,0,0,1-.09,0l-.09,0-.08,0s-.09.05-.16.14l-.09.11a.84.84,0,0,0-.14.25.49.49,0,0,1-.16.21l-.17.12a.09.09,0,0,0,0,.06.54.54,0,0,1-.07.13.6.6,0,0,0-.08.23.23.23,0,0,1-.21.16h0a.52.52,0,0,0-.28.11.47.47,0,0,1-.28.1h-.08l-.22,0-.08,0a.22.22,0,0,1-.11-.06l-.21-.14a.44.44,0,0,0-.3,0c-.12,0-.13.11-.19.2a.48.48,0,0,1-.42.18h-.16l0,0a0,0,0,0,0,0,0,.06.06,0,0,0,0,0,.15.15,0,0,1,0,.09s0,.13,0,.21a.91.91,0,0,0,.06.24.73.73,0,0,1,0,.23.55.55,0,0,1-.06.24.52.52,0,0,1-.13.15s-.05.13,0,.23l0,.12c0,.1.05.24.07.29a.73.73,0,0,1,0,.26.33.33,0,0,1,0,.12s-.06,0-.08.06a0,0,0,0,0,0,.06s.14.08.18.05a.14.14,0,0,0,.06-.08.53.53,0,0,1,.13-.17,1.59,1.59,0,0,0,.21-.25.64.64,0,0,1,.14-.16.28.28,0,0,1,.14,0,.4.4,0,0,1,.2.14,1.53,1.53,0,0,0,.18.19.3.3,0,0,1,.09.15.35.35,0,0,0,.07.15.15.15,0,0,0,.09,0l.14,0,.13,0s.05,0,.07.07a.1.1,0,0,0,.11.05.86.86,0,0,0,.21-.14,1.41,1.41,0,0,0,.22-.24.53.53,0,0,0,.08-.16.26.26,0,0,1,0-.1s0-.06.07,0,0,.07,0,.1a.2.2,0,0,0,.09.1.34.34,0,0,0,.16.07.11.11,0,0,0,.07,0l0-.07s0,0,.07,0a.11.11,0,0,1,.09.09.1.1,0,0,0,.12.07.24.24,0,0,0,.13-.07s.07,0,.1-.05l0,0a.25.25,0,0,1,.16-.06l.31-.06.11,0a1,1,0,0,1,.23,0s.16,0,.2,0a.35.35,0,0,1,.06.13.26.26,0,0,0,.15.15,1,1,0,0,1,.27.17l0,0a1.28,1.28,0,0,0,.3.19l.33.13.08,0a.66.66,0,0,1,.28.23l0,0c.06.09.12.16.14.16s0-.1,0-.2V74.9c0-.11,0-.21.06-.23l.18-.09a.53.53,0,0,0,.16-.13.52.52,0,0,0,0-.27L19,74a1.59,1.59,0,0,1,0-.29.26.26,0,0,1,.09-.15.18.18,0,0,0,.05-.12.49.49,0,0,0,0-.13v-.1a.5.5,0,0,1,.08-.31l.22-.27.19-.24a.47.47,0,0,1,.31-.16h.12l.26,0a.06.06,0,0,1,.07,0,.64.64,0,0,1,0,.12.77.77,0,0,0,0,.16.56.56,0,0,0,.15.23l.06.06a.27.27,0,0,1,.08.27,2.09,2.09,0,0,1-.17.29l-.13.18a.51.51,0,0,0-.1.19s0,0,.07,0l.19-.06a.18.18,0,0,0,.13-.17.77.77,0,0,1,.06-.26.58.58,0,0,1,.13-.18.41.41,0,0,1,.27,0h0a.46.46,0,0,0,.26,0A.6.6,0,0,1,21.6,73a.21.21,0,0,0,.15-.15.41.41,0,0,1,.06-.15s.11-.06.15-.1.1-.07.12-.07l.06,0,.09,0a.3.3,0,0,0,.13-.08.52.52,0,0,1,.27-.08h.24a1.38,1.38,0,0,0,.29,0l.13,0a.34.34,0,0,0,.11-.14.27.27,0,0,1,.25-.11,1.21,1.21,0,0,0,.3,0,.32.32,0,0,0,.18-.13.3.3,0,0,1,.08-.1s0,0,0,.09.1.14.17.17a.53.53,0,0,0,.26,0,.33.33,0,0,0,.25-.21c0-.1.1-.19.15-.2h0l.19,0a.29.29,0,0,0,.22-.06,1,1,0,0,1,.29-.15l.1,0,.23-.09a.15.15,0,0,0,.06-.08.36.36,0,0,1,.15-.12.2.2,0,0,1,.21,0,1.92,1.92,0,0,1,.19.24l0,0a.38.38,0,0,0,.29.16l.31,0a.27.27,0,0,0,.21,0,1.19,1.19,0,0,0,.2-.27s.07-.09.12-.05h0v0a.27.27,0,0,1,.07-.15.19.19,0,0,0,.05-.15.12.12,0,0,0-.14-.11.44.44,0,0,0-.2.06s-.08,0-.09,0a.1.1,0,0,1,0-.09.67.67,0,0,1,.22-.07c.12,0,.25-.08.35,0a.16.16,0,0,0,.13.06.66.66,0,0,0,.18-.08.77.77,0,0,1,.19-.09.49.49,0,0,0,.18-.18l.1-.15a1.68,1.68,0,0,1,.22-.26.52.52,0,0,1,.15-.08l-.22-.41a.28.28,0,0,1,0-.2l.08-.21a.27.27,0,0,0,0-.2l0-.08a.41.41,0,0,1,0-.21l0-.37a.49.49,0,0,1,.08-.2l.39-.54a1.1,1.1,0,0,0,.11-.19l.13-.32,0-.07a.47.47,0,0,1,.13-.17l.29-.21A.17.17,0,0,0,30.32,66.43Z"/><path class="cls-3" d="M24.18,61.26a.06.06,0,0,0,.06,0l.05,0a.55.55,0,0,1,.17,0,.3.3,0,0,0,.15-.09l.13-.16a.44.44,0,0,0,0-.22l0-.09a.5.5,0,0,0-.18-.26.34.34,0,0,0-.3,0l-.24.1a.28.28,0,0,0-.16.24v0c0,.21.21.35.31.51Z"/><path class="cls-3" d="M23,61.83a.15.15,0,0,0,.19-.17c0-.11-.09-.18-.18-.14a.3.3,0,0,0-.19.17C22.85,61.75,22.93,61.81,23,61.83Z"/><path class="cls-3" d="M19.47,73l.18-.15a0,0,0,0,0,0-.06l-.12,0a0,0,0,0,0-.06,0l0,.2S19.45,73,19.47,73Z"/><path class="cls-3" d="M20.34,73.38l0-.18a.41.41,0,0,1,0-.13s0-.09,0-.14a1,1,0,0,0,0-.14c0-.07-.08-.06-.12-.08s0,0-.07,0a0,0,0,0,0,0,0s0,.08,0,.12a.21.21,0,0,1-.05.1L20,73l-.06.07s0,0,0,.05l.13,0a.08.08,0,0,1,.05.08c0,.08,0,.16,0,.24a0,0,0,0,0,0,0h0C20.24,73.51,20.35,73.46,20.34,73.38Z"/><path class="cls-3" d="M22,73.27l-.24,0-.2,0a1.21,1.21,0,0,0-.2,0s0,0,0,0v0a.26.26,0,0,0,.11.05l.14,0,.2.07h.08l.14-.09S22,73.27,22,73.27Z"/><path class="cls-3" d="M22.57,72.82a3.29,3.29,0,0,1-.34.18h0a0,0,0,0,0,0,0h0l.12,0s.07,0,.1,0l0,0c0-.08.07-.18.11-.27S22.59,72.8,22.57,72.82Z"/><path class="cls-3" d="M23.1,72.7a0,0,0,0,0-.07,0l-.17.09a.09.09,0,0,0,0,.08l0,.13a.16.16,0,0,1,0,.11s-.09,0-.09.08.22,0,.25,0,.19,0,.24-.09,0-.18,0-.24Z"/><path class="cls-3" d="M23.9,72.4a.15.15,0,0,0-.07-.08h0a.13.13,0,0,0-.1,0l-.19.12-.09.07,0,0a.3.3,0,0,0-.06.09v0a.11.11,0,0,0,0,.1.1.1,0,0,0,.09,0,1.1,1.1,0,0,0,.36-.15.29.29,0,0,0,.08-.11.15.15,0,0,0,0-.1Z"/><path class="cls-3" d="M20,74.69a2.35,2.35,0,0,0-.3.11.28.28,0,0,1-.13,0c-.07,0-.08,0-.11-.09a.33.33,0,0,0-.13-.11.35.35,0,0,0-.2,0l-.07,0a.15.15,0,0,0-.12.11.44.44,0,0,0,0,.18A.5.5,0,0,1,19,75a.11.11,0,0,0,0,.06l.06,0h.06l.34-.08c.06,0,.16,0,.19,0v0h0l.11-.12.22-.21s.06-.06,0-.09S20,74.68,20,74.69Z"/><path class="cls-3" d="M28.63,71.52a.34.34,0,0,0,.16,0l.15,0s0,.08.05.16,0,.15.08.14a.42.42,0,0,0,.16-.11s.11-.19.17-.15l0,.05v0a.11.11,0,0,0,.08.05c.09,0,.12-.15.12-.22s-.06-.19-.06-.3,0-.13-.1-.13-.1,0-.15.07l-.16.06-.32.09a.48.48,0,0,0-.2.09S28.55,71.49,28.63,71.52Z"/><path class="cls-3" d="M28.09,71.52l.1.06a.14.14,0,0,0,.16,0s0-.1,0-.12a.29.29,0,0,0-.18,0l-.06,0C28,71.46,28,71.5,28.09,71.52Z"/><path class="cls-3" d="M26.57,72.12h0c.06,0,.1,0,.1-.08s0-.05-.09-.05a.13.13,0,0,0-.12.08S26.51,72.13,26.57,72.12Z"/><path class="cls-3" d="M26.15,72.27h.07a.1.1,0,0,0,.09-.1v0a.07.07,0,0,0-.09-.07h-.05a.14.14,0,0,0-.1.11A.07.07,0,0,0,26.15,72.27Z"/><path class="cls-3" d="M31.26,75.28c-.2-.06,0-.3,0-.4a.41.41,0,0,0-.11-.28l-.11-.12a2.08,2.08,0,0,0-.24-.22.16.16,0,0,1-.07-.16l.09-.27,0-.15a1,1,0,0,0,0-.32c0-.12-.07-.22-.09-.34s0-.06,0-.07h-.05l-.46.09a.48.48,0,0,1-.22,0L30,73a.57.57,0,0,0-.28-.12.44.44,0,0,1-.22-.07l-.15-.13a.25.25,0,0,0-.09-.07s0-.08-.06-.17,0-.15-.08-.13-.2,0-.3,0h0c-.09,0-.13-.11-.15-.17s-.06-.17-.13-.11,0,.06-.06.07-.07,0-.11,0h-.05c-.12.05-.24.15-.38.11l-.41-.11h-.07a.12.12,0,0,0-.07.06c-.06.12-.1.2-.23.25a1.13,1.13,0,0,0-.32.19l-.3.26c-.16.14-.31.09-.49,0h0a.05.05,0,0,0,0,.06A.12.12,0,0,0,26,73a1.57,1.57,0,0,1,.09.16.55.55,0,0,1,.05.31l0,.14A.81.81,0,0,1,26,74l-.14.17-.19.23a.39.39,0,0,1-.32.13l-.55-.07a.74.74,0,0,0-.37.07l-.36.19a.71.71,0,0,1-.36.06h-.05a.44.44,0,0,1-.29-.2l-.15-.28a2.63,2.63,0,0,0-.22-.32l-.28-.34a.08.08,0,0,0,0,0s-.05,0-.06.05a.83.83,0,0,0,0,.17h0a.43.43,0,0,1-.19.29l-.36.2a.51.51,0,0,0-.21.28.59.59,0,0,1-.15.35.57.57,0,0,0-.1.08c-.08.1-.06.35-.07.47l0,.37a.41.41,0,0,1-.18.29l-.55.32a1.55,1.55,0,0,0-.3.24l-.23.25a1.3,1.3,0,0,1-.3.23l-1.29.66c-.09,0-.15.13-.11.19s.13,0,.22,0l.11-.08a.74.74,0,0,1,.2-.11.71.71,0,0,0,.25-.1l.11-.08a1.45,1.45,0,0,1,.28-.14.29.29,0,0,1,.23.07.33.33,0,0,1,.09.22c0,.1,0,.19,0,.29a1.06,1.06,0,0,1,0,.23.27.27,0,0,0,0,.07c0,.1.22.06.28,0h0a.52.52,0,0,1,.26,0c.1.06,0,.19-.09.23s0,0,0,0h0a.25.25,0,0,1,.2.08.25.25,0,0,1,0,.15.38.38,0,0,1-.11.21c-.08.08-.25.14-.27,0a.08.08,0,0,0,0-.05,0,0,0,0,0-.07,0,.34.34,0,0,0,0,.16.88.88,0,0,0,.1.32.36.36,0,0,1,.06.21s0,.17-.09.15h0s0,0,0,0a.06.06,0,0,0,.05,0h.07c.06,0,.05.06.08.1l.09.16a.22.22,0,0,1,0,.15,1.21,1.21,0,0,0-.06.26c0,.09,0,.16.11.15a.19.19,0,0,0,.15-.11c0-.05,0-.09.08-.09a.46.46,0,0,1,.17.08.57.57,0,0,0,.23.07h0a.88.88,0,0,1,.25,0c.05,0,.09.06.09.1a.66.66,0,0,1-.11.22l-.14.21,0,.09s0,0-.06.07a.06.06,0,0,0,0,.08h0a.72.72,0,0,1,.39,0,.35.35,0,0,1,.13.09.26.26,0,0,0,.18.05.62.62,0,0,0,.27-.08.67.67,0,0,1,.32-.07.28.28,0,0,1,.24.15.22.22,0,0,0,.18.15.11.11,0,0,0,.12-.12.54.54,0,0,0-.15-.26l0,0a.39.39,0,0,1-.06-.31.32.32,0,0,1,0-.1c0-.09.1-.14.12-.24s0-.07,0-.1l0-.29a.4.4,0,0,1,.11-.25.6.6,0,0,1,.21-.07.35.35,0,0,0,.22-.19l.19-.39a1,1,0,0,1,.22-.29,1.12,1.12,0,0,0,.21-.24.52.52,0,0,0,.06-.28,1.5,1.5,0,0,0,0-.2.14.14,0,0,1,0-.11l.13-.18s.09-.24.16-.21,0,0,.06,0a.09.09,0,0,0,.08,0l.11-.08L25,77.8l.12-.09.2-.16a.92.92,0,0,1,.23-.12.3.3,0,0,0,.2-.22l0,0a.07.07,0,0,1,.06,0l.2,0a.43.43,0,0,0,.21-.05.75.75,0,0,1,.16,0,.58.58,0,0,1,.3,0,1.05,1.05,0,0,0,.3.1l.31.05a.63.63,0,0,1,.32.18l.24.28L28,78a1.51,1.51,0,0,0,.22.22l0,0a1.37,1.37,0,0,1,.25.29v0c.05.09.12.16.16.15s.07-.11.09-.21l0-.21a3.81,3.81,0,0,1,.1-.38l0-.14a2.08,2.08,0,0,1,.16-.35l.11-.18,0,0a1.45,1.45,0,0,0,.13-.27.16.16,0,0,1,.1-.11.24.24,0,0,0,.13-.11.42.42,0,0,0,.06-.14s0-.08.1-.12a.52.52,0,0,1,.19-.1.89.89,0,0,0,.25-.13l.08-.05a1.44,1.44,0,0,0,.28-.27h0a1.29,1.29,0,0,1,.28-.26l.24-.16a.66.66,0,0,0,.18-.15S31.3,75.29,31.26,75.28Zm-5.15-.8h0Zm0-.05h0Z"/><path class="cls-3" d="M6.5,75.9a.16.16,0,0,0,0,.07.07.07,0,0,0,0,0h0a.39.39,0,0,0,.2-.08l.2-.12a.08.08,0,0,0,0,0s0-.05,0-.07a.3.3,0,0,1-.05-.17.41.41,0,0,0-.18-.24.52.52,0,0,0-.19-.08s0,0-.05.08a1.72,1.72,0,0,1,0,.17,1,1,0,0,0,0,.38A.64.64,0,0,1,6.5,75.9Z"/><path class="cls-3" d="M6.89,77.57v0h0a1.38,1.38,0,0,1-.12.24s0,0,0,0a.56.56,0,0,1,.14-.07h0a0,0,0,0,0,0,0l0-.06A.35.35,0,0,1,6.89,77.57Z"/><path class="cls-3" d="M18.06,80.7a1.47,1.47,0,0,1-.23-.06.31.31,0,0,0-.18,0h-.09s0-.09,0-.11a0,0,0,0,0,0,0l0,0c-.06,0-.06-.07,0-.12a1.1,1.1,0,0,0,0-.18c0-.05.1-.11.2-.13h.19a.05.05,0,0,0,0,0h0a.83.83,0,0,0-.25,0,.21.21,0,0,1-.14,0,.35.35,0,0,0-.15,0s-.07,0-.05,0l.06-.09s0-.05,0-.08l0,0v0h0c-.05,0-.1,0-.15,0h-.09c-.07,0-.1,0-.11-.1a.41.41,0,0,1,0-.2.71.71,0,0,1,.15-.22c.06-.06.09-.13.07-.15a.27.27,0,0,0-.12-.07.32.32,0,0,0-.18,0,.78.78,0,0,1-.29,0l-.32,0a1.26,1.26,0,0,0-.33,0h-.06a.7.7,0,0,1-.34-.06.32.32,0,0,1-.15-.26.71.71,0,0,1,0-.26.17.17,0,0,1,.16-.06H16l.16-.09c.06,0,.1-.09.1-.11a.2.2,0,0,0-.07-.08s0-.06,0-.07a.82.82,0,0,1,.18,0,.18.18,0,0,0,.14-.09.67.67,0,0,0,.12-.32v-.07c0-.11,0-.26,0-.34a.52.52,0,0,0-.1-.3l-.1-.13a.46.46,0,0,1-.11-.23.08.08,0,0,0,0,0,.08.08,0,0,0-.07,0,.63.63,0,0,1-.23-.05.13.13,0,0,0-.12,0s0,0-.06.06a.11.11,0,0,1-.07,0,.22.22,0,0,0-.2,0,.38.38,0,0,0-.15.24.71.71,0,0,1-.19.28.54.54,0,0,1-.32.09l-.37,0a.92.92,0,0,1-.33-.09,1.54,1.54,0,0,0-.28-.12h0l-.31-.06a.42.42,0,0,1-.27-.19l-.18-.3a1,1,0,0,1-.12-.36v-.07a.67.67,0,0,0-.08-.27.28.28,0,0,1,0-.22,2.3,2.3,0,0,1,.13-.31c0-.09.06-.19,0-.22a.19.19,0,0,0-.11-.05.45.45,0,0,0-.19.13,1.11,1.11,0,0,1-.19.16.57.57,0,0,1-.18,0,.31.31,0,0,1-.2-.07c-.05-.05-.06-.18-.14-.19H12a1.76,1.76,0,0,0-.31.07l-.16,0a.33.33,0,0,0-.22.15h0a.41.41,0,0,1-.31.15h-.13a.55.55,0,0,0-.46.5v0a2.63,2.63,0,0,0,0,.32.27.27,0,0,1-.12.22,1,1,0,0,0-.24.25L10,76.6a.43.43,0,0,1-.3.18h0a.45.45,0,0,1-.32-.13h0a.2.2,0,0,0-.27,0,1.43,1.43,0,0,1-.3.19s-.06,0-.07.07,0,.08.09.1.1,0,.1.1-.26.19-.36.19a.19.19,0,0,0-.11,0s0,.09-.06.14h0c-.06.24-.47.3-.51,0v-.08a.4.4,0,0,0-.13-.26.28.28,0,0,0-.2,0c-.09,0-.11.1-.17.16l0,0s.13.23,0,.26a.12.12,0,0,1-.08,0l-.07,0s-.06,0-.08,0a.06.06,0,0,0,0,.05,2.37,2.37,0,0,1,.07.29l0,.15s0,.1,0,.11.13-.05.13,0a.36.36,0,0,1-.12.17.13.13,0,0,1-.2,0L7,78.26a.25.25,0,0,0-.11-.07.31.31,0,0,0-.16,0,.15.15,0,0,1-.16,0,.27.27,0,0,0-.13-.07H6.24c-.06,0-.12-.05-.18,0H6s0,.06,0,.09,0,.08,0,.13v0a.54.54,0,0,1-.05.35l-.06.1c-.06.09,0,.19,0,.22l.24.12a.3.3,0,0,1,.13.11.42.42,0,0,0,.09.13s.08.08,0,.12l0,0-.09,0a0,0,0,0,0,0,0h0a.33.33,0,0,0,.22,0,.19.19,0,0,1,.14,0,.12.12,0,0,1,.08.1c0,.08,0,.14,0,.21a.11.11,0,0,0,.06.1h0l0,0a.3.3,0,0,1,.29,0,.42.42,0,0,0,.21,0,.32.32,0,0,1,.23.09.52.52,0,0,1,.13.28,1.71,1.71,0,0,1,0,.33.42.42,0,0,0,.08.28c.05.07.08.14.07.16s-.08,0-.13,0a.41.41,0,0,0-.16,0,.36.36,0,0,0-.14.07.27.27,0,0,1-.23,0,.28.28,0,0,1-.15-.25,1.39,1.39,0,0,1,0-.28.82.82,0,0,0,0-.14.18.18,0,0,0,0-.09.17.17,0,0,0-.11,0s-.1,0-.15,0a.13.13,0,0,1-.05-.06c0-.07,0-.14,0-.22s-.09-.09-.13-.14l-.1-.09-.05,0a.06.06,0,0,0-.06,0,.1.1,0,0,0,0,.07.31.31,0,0,1-.1.23v0a.08.08,0,0,0,0,0c0,.05,0,.1,0,.16a.12.12,0,0,1-.08.11s0,0-.06,0a.07.07,0,0,0,0,0,.53.53,0,0,0,.15.3.79.79,0,0,1,.14.28v0c0,.1.06.22.06.27s.09.07.18.06a.31.31,0,0,1,.27.16l.15.28a.29.29,0,0,1,0,.26l-.06.1a.76.76,0,0,0,0,.12c0,.06,0,.15,0,.2a.12.12,0,0,0,.1,0c.08,0,.13-.08.17-.13l.43-.52a1,1,0,0,1,.3-.23l.13-.06a1,1,0,0,1,.37-.08H8.7a.4.4,0,0,1,.29.14A.26.26,0,0,1,9,82l-.07.09s-.09.07-.12.12a.13.13,0,0,0,0,.05.37.37,0,0,0,.14.31.29.29,0,0,0,.23.08c.14-.06.18-.22.31-.27a.26.26,0,0,0,.12-.07l0-.07.07-.08L9.8,82a.5.5,0,0,0,.1-.27,1,1,0,0,0-.1-.28l-.1-.19a.34.34,0,0,0-.26-.18.75.75,0,0,0-.33.09l-.08,0a.14.14,0,0,1-.22-.09v0a.3.3,0,0,1,.11-.3l.1-.07.06-.06.05,0,0,0a0,0,0,0,0,0,0l0,0a1.63,1.63,0,0,1-.25-.41l-.14-.26a.21.21,0,0,1,.07-.27l.34-.21a.2.2,0,0,1,.26,0,.38.38,0,0,0,.28.11h.08a.32.32,0,0,1,.28.17l0,0a.67.67,0,0,1,.05.21.31.31,0,0,1-.07.2.16.16,0,0,0,0,.07.13.13,0,0,0,0,.07l0,.06.08.1a.7.7,0,0,1,.08.21.41.41,0,0,0,.12.22,1.46,1.46,0,0,1,.21.21l.1.12a1.35,1.35,0,0,0,.27.23.34.34,0,0,1,.13.28v.07a.66.66,0,0,1-.13.34l-.09.11a.56.56,0,0,1-.24.17c-.15,0-.23.2-.38.2h-.06l-.05,0s0,.06,0,.09a1.78,1.78,0,0,0,0,.2v0h0l0,0a.59.59,0,0,1,.28-.18l.19-.08a.86.86,0,0,1,.3-.07H11c.11,0,.17,0,.15,0a1.48,1.48,0,0,0-.14.21l-.05.09-.09.13a.35.35,0,0,0-.05.1.24.24,0,0,0,0,.1.23.23,0,0,1,0,.07s0,0,0,.06H11c.06,0,0,.13,0,.17l-.37.59a1.76,1.76,0,0,1-.23.37l-.06.05a.5.5,0,0,0-.09.28.4.4,0,0,1-.15.23.67.67,0,0,0-.19.25l0,.07a.38.38,0,0,1-.21.11l-.42.06A.15.15,0,0,1,9,85.34v0A.5.5,0,0,0,9,85c0-.07-.13-.05-.2-.06a.13.13,0,0,0-.09,0,.12.12,0,0,0,0,.11,1,1,0,0,0,.07.37.75.75,0,0,0,.15.22.48.48,0,0,0,.16.09.14.14,0,0,1,.1.11.25.25,0,0,1-.06.17.36.36,0,0,0,0,.27l.06.26a.92.92,0,0,1,0,.36,2.75,2.75,0,0,0-.06.37v.11a.44.44,0,0,0,.12.32l.24.22a1.06,1.06,0,0,1,.21.27.94.94,0,0,1,.06.33v.5a.6.6,0,0,1-.1.32.72.72,0,0,1-.28.19h0a.31.31,0,0,1-.28,0l-.07,0H8.76a.07.07,0,0,0,0,0,.08.08,0,0,0,0,.06l0,.08a.52.52,0,0,0,.13.15c.1,0,.07.22.14.29l.09.06a.08.08,0,0,1,0,.07.12.12,0,0,1,0,0,.15.15,0,0,0,0,.14.28.28,0,0,0,.19.12l.33,0h.59a.35.35,0,0,1,.28.17l.06.11a.33.33,0,0,0,.26.17.48.48,0,0,0,.3-.14h0a.25.25,0,0,0,0-.3L11,90.4a2.52,2.52,0,0,1-.19-.34l-.15-.35a.72.72,0,0,1,0-.37l.06-.31a1.42,1.42,0,0,1,.14-.36l.18-.31a1.42,1.42,0,0,0,.13-.32.36.36,0,0,1,.14-.21.8.8,0,0,1,.27-.07.56.56,0,0,1,.32.1l.09.07c.09.06.14.16.12.22s-.06.19-.08.29v.05a.26.26,0,0,1-.18.2.21.21,0,0,1-.18-.06l-.08-.15s-.12-.06-.23,0a.54.54,0,0,0-.22.09.15.15,0,0,0,0,.13.39.39,0,0,0,.12.13.22.22,0,0,0,.15,0h.13s.05.1,0,.21v.14a.7.7,0,0,0,.1.36l.25.39a.51.51,0,0,1,.06.35l-.06.24s0,.1,0,.15a.47.47,0,0,0,0,.22.41.41,0,0,1,0,.17.59.59,0,0,1-.17.22.66.66,0,0,1-.23.16l-.06,0a.07.07,0,0,0,0,0,.1.1,0,0,0,0,.07c0,.06.07.13,0,.19a.29.29,0,0,0,0,.08.3.3,0,0,1,0,.09.05.05,0,0,0,0,0s0,0,.06,0a.32.32,0,0,0,.19-.07.49.49,0,0,0,.14-.13.51.51,0,0,1,.22-.15l.39-.15a1.78,1.78,0,0,0,.34-.19l.08-.06A1.14,1.14,0,0,0,13,91a.69.69,0,0,1,.17-.25,1,1,0,0,0,.19-.15l.09-.12,0,0s0,0,0,0a.21.21,0,0,1,0-.16c0-.06,0-.12,0-.18s0,0,0,0h-.14c-.06,0-.08-.15-.06-.21a.81.81,0,0,1,.21-.3l.1-.08a.36.36,0,0,1,.33-.05l.17.07,0,0a.85.85,0,0,1,.23.12c.06,0,.1.11.16.16l0,0c.08.07.18.11.21.1a.12.12,0,0,0,.06-.11.25.25,0,0,1,.08-.16.3.3,0,0,0,.08-.2.26.26,0,0,1,0-.13s0-.05,0-.09a.39.39,0,0,1,0-.08.14.14,0,0,1,0-.06,1.44,1.44,0,0,1,.06-.17.94.94,0,0,0,.05-.1,1.32,1.32,0,0,1,.13-.21.57.57,0,0,0,.1-.27,1.19,1.19,0,0,1,.06-.31l.11-.31c0-.05.06-.21,0-.26l-.06,0,0,0a.2.2,0,0,1-.06-.13.72.72,0,0,0,0-.11,1.08,1.08,0,0,1,0-.38,1.28,1.28,0,0,0,.06-.3.79.79,0,0,1,0-.13c0-.05,0-.1.06-.14s0-.09,0-.14a1.89,1.89,0,0,0,.08-.19,1,1,0,0,1,.06-.19,1.29,1.29,0,0,0,.06-.27v-.08a2.84,2.84,0,0,1,.09-.38v0A2.21,2.21,0,0,1,16,84.5l.11-.2a.63.63,0,0,0,.09-.28.18.18,0,0,1,.09-.17c.09,0,.1-.18.11-.26a.28.28,0,0,1,.13-.23l.07-.05a.08.08,0,0,0,0-.08.13.13,0,0,0-.05-.05.34.34,0,0,1-.09-.26.61.61,0,0,1,.17-.21l.1-.08a.66.66,0,0,0,.17-.2.51.51,0,0,1,.19-.18l0,0c.09-.06.16-.14.14-.19a.16.16,0,0,1,.06-.15.36.36,0,0,0,.1-.14l0-.08,0-.05a.24.24,0,0,1,.13-.05.28.28,0,0,0,.13,0l.11-.07a.25.25,0,0,0,.09-.1s0-.09,0-.1h-.1s0,0,0,0a.21.21,0,0,1,0-.13.36.36,0,0,0,.06-.15.24.24,0,0,1,.15-.17s0,0,0,0S18.08,80.7,18.06,80.7Z"/><path class="cls-3" d="M8.83,84.44v0A.21.21,0,0,1,9,84.24H9a.23.23,0,0,0,.14-.14.83.83,0,0,1,.08-.26s0,0,0,0,0,.06,0,.08a0,0,0,0,0,0,0l0,0a.32.32,0,0,1,.26-.09l.15,0a.41.41,0,0,0,.19,0c.13,0,.17-.15.21-.25l.11-.25a.12.12,0,0,0-.05-.16.27.27,0,0,0-.2,0l-.82.33a.09.09,0,0,1-.13-.07l0-.13a1.33,1.33,0,0,1,0-.16S9,83,9,83l0,0h0L8.79,83l-.15.05-.18.06a.28.28,0,0,0-.15.14l-.11.28-.09.23A2.3,2.3,0,0,1,8,84l0,0a.19.19,0,0,0,0,.1s0,.07.05.11a.28.28,0,0,1,0,.16l0,.29a.34.34,0,0,0,.09.29.12.12,0,0,0,.06,0h.06a.79.79,0,0,0,.18-.15l.12-.09.21-.16A.36.36,0,0,0,8.83,84.44Z"/><path class="cls-3" d="M7.66,87.16l-.22-.07c-.06,0-.1,0-.1,0a.4.4,0,0,0,.05.11.09.09,0,0,0,.11,0l.13-.06h0Z"/><path class="cls-3" d="M6.83,87.74l-.09,0a.25.25,0,0,0-.16.12l-.09.19a.14.14,0,0,0,0,.16l0,0,0,0a.06.06,0,0,0,.08,0,1,1,0,0,0,.1-.17L6.8,88l.1-.19S6.89,87.73,6.83,87.74Z"/><path class="cls-3" d="M85.65,73.34l-.09,0h0s0,0,0,0l0,0h0a.08.08,0,0,1,0-.06s0,0,0,0l0,0,0,0s0,0,0,0a.12.12,0,0,0,0,.1s0,0,0,.05,0,0,0,0Z"/><path class="cls-3" d="M85.58,73.07a.08.08,0,0,1-.07-.08s0,0,0,0,.07,0,.06,0,0,0,0,.06,0,0,0,0Z"/><path class="cls-3" d="M84.47,73.37s0,0,0,0,0,0,0,0,0,0,0,0,0,0,0,0,0,0,0,0Z"/><path class="cls-3" d="M84.83,76.41s0,0,0-.06l.07,0s0,0,0,0,0,0,0,0,0,.06-.06.06,0,0-.06,0Z"/><path class="cls-3" d="M85.15,75.87s0,0,0,0,0,0,0,0,0,0,0,0,0,0,0,0h0a.06.06,0,0,1,0,0,.2.2,0,0,0,0,.05s0,0,0,0Z"/><path class="cls-3" d="M85.25,75.45a.11.11,0,0,1,0-.08s0,0,0,0l.06,0s0,0,0,0l0,0s0,0,0,0Z"/><path class="cls-3" d="M85.43,75.51s0,0,0,0h0l0,0Z"/><path class="cls-3" d="M85.37,75.59s0,0,0,0,0,0,0,0Z"/><path class="cls-3" d="M85.08,75.43a.09.09,0,0,1-.05,0s0,0,0,0,0,0,0,0,0,.05,0,.05Z"/><path class="cls-3" d="M85.46,75s0,0,0,0,0,0,0,0,0,0,0,0,0,0,0,0l0,0h0s0,0,0,0a.24.24,0,0,0,0,.06s0,0,0,0Z"/><path class="cls-3" d="M87.28,72.7s0,0,0,0a.14.14,0,0,1,0,0s0,0,0,0,0,0,0,0a.06.06,0,0,0,0-.06s0,0,0,0,0,0,0,0,0,0,0-.05,0,0,0,0a.07.07,0,0,0,0,0s0,0,0,0,0-.06,0-.08,0,0,0,0,0,0,0,0,0,0,0-.06,0,0,0,0,0,0-.06,0,0,0,0,0,0,0,0,0,0,0,0,0,0,0,0,0h0a.08.08,0,0,0,0,.06s0,0,0,0,0,0,0,0a.07.07,0,0,1,0,0s0,.08-.06.11a.27.27,0,0,0,0,.1s0,0,0,0,0,0,0,0,0,0,0,0-.07.06-.08.07,0,0,0,0l0,0,0,0,0,.06s0,0-.05,0l-.07,0s0,0,0,0,0,0,0,0a.1.1,0,0,1,0,.08.1.1,0,0,1-.06.08l0,0a.51.51,0,0,1-.14,0s0,0,0,0,0,0,0,0,0,0,0,0,0,0,0,0,0,0,0,0,0,0,0,0a0,0,0,0,1,0,0s0,0,0,0,0,0,0,0h0s0,0,0,0,0,0,0,0,0,0,0,0,0,0,0,0,0,0,0,0,0,0,0,0,0,0,0,0l0,0-.08.08-.07,0-.1.05s0,0-.07,0,0,0,0,0a.05.05,0,0,1,0,0l-.06,0s0,0-.05,0,0,0,0,0,0,0,0,0,0,0,0,0a0,0,0,0,1,0,0h0s0,0,0,0,0,0,0,0,0,0,0-.06,0,0,0,0l0,0s0,0,0,0l-.08,0-.08,0s0,0,0,0,0,0,0,0,0,0,0,0-.06,0-.07,0l-.09,0h-.2a.13.13,0,0,1-.06,0s0,0,0,0,0,0,0,0a.05.05,0,0,1,0,0s0,0,0,.06,0,0,0,0l.05,0a.07.07,0,0,1,0,0s0,0,0,0h0s0,0,0,.06a.12.12,0,0,0,0,.09s0,0,0,.05,0,0,0,0a.09.09,0,0,1,0,.07s0,0,0,0l.06,0s0-.05,0-.05h0s0,0,.06,0,0,0,.06,0l.08.05.1,0s0,0,0,.06-.05.12-.06.14,0,0,0,0,0,0,0,0,0,0,0,0,0,0,0,0a.07.07,0,0,1-.06,0s0,0,0,0,0,0,0,0,0,0,0,0,0,0,0,0,0,0,0,0a.12.12,0,0,1,0,.06s0,0,0,0l-.07,0s0,0,0,0,0,0,0,0,0,0,0,0l0,0s0,0,0,0,0,0,0,0,0,0,0,0a0,0,0,0,1,0,0s0,0,0,0,0,0,0,0,0,0,0,0a.15.15,0,0,1,0,.07s0,0,0,0,0,0,0,0-.06,0-.07,0,0,0-.05,0,0,0,0,0,0,0,0,0,0,0,0,0,0,0,0,0a0,0,0,0,1,0,0l0,0s0,0,0,0,0,0,0,0,0,0,0,0l0,0a.17.17,0,0,0-.07.06s0,0-.05,0-.06-.09-.07-.1,0,0-.05,0,0,0,0,0,0,0,0,.08a.41.41,0,0,0,0,.14l.12.23a.51.51,0,0,1,0,.14.08.08,0,0,1,0,.05s0,0,0,.06,0,0,0,0,0,0,0,.06a.52.52,0,0,1,0,.1s0,0,0,0l0,0s0,0,0,0h0a0,0,0,0,0,0,0s0,0,0,0,0,0,0,0,0,0,0,0,0,0,0,0,0,0,0,0,0,0,0,0,0,0,0,0l0,0s0,0,0,0l0,0s0,0,0,0,0,0,0,0,0,0,0,0,0,0,0,0,0,0,0,0a.08.08,0,0,0,0,0s0,0,0,0,0,0,0,0,0,0,0,0l0,.05s0,0,0,0l0,0s0,0,0,0l0,0s0,0,0,0l0,0h0s0,0,0,0,0,0,0,0,0,0,0,0,0,0,0,0,0,0,0,0,0,0,0,0a.18.18,0,0,1,0,.06s0,0,0,0,0,0,0,0v0h0s0,0,0,0,0,0,0,0,0,0,0,0,0,0,0,0l-.06,0,0,0a.07.07,0,0,0,0,.05s0,0,0,0h0s0,0,0,0,0,0,0,0,0,0,0,0,0,0,0,0,0,0,0,0,0,0,0,0a.6.6,0,0,0,0,.1.32.32,0,0,0,0,.12,0,0,0,0,0,0,0l.06,0s0,0,0,0,0,0,0,0a.48.48,0,0,1,.12-.06h.06s0,0,0,0,0,0,0,0l.05-.1s0,0,0,0,0,0,0,0h.08s0,0,0,0,0,0,0,0h.05s0,0,0,0l0,0,.06-.07.05,0s0,0,0,0,0,0,0,0a0,0,0,0,0,0,0s0,0,0-.06,0,0,0,0h-.08l-.07,0s0,.05,0,.07,0,0,0,0,0,0,0,0,0,0,0,0,0,0,0,0a.07.07,0,0,0,0,0,.14.14,0,0,0-.07,0s0,0,0,0,0,0,0,0l.06,0s0,0,0,0l0,0,0-.05s0,0,0-.07,0,0,0-.05,0,0,0-.06,0,0,0,0,0,0,0,0,0,0,0,0v0s0,0,0,0,0,0,0,0l0,0a.13.13,0,0,0,0-.06s0,0,0,0a.07.07,0,0,0,.06,0,0,0,0,0,0,0,0s0,0,0,0h0s0,0,0,0l0,0h0s0,0,0,0l.07,0h0a.11.11,0,0,1,0,.05s0,.05.06.08l.08.09.06,0s0,0,0,0h0s0,0,0,0a.07.07,0,0,0,0,0s0-.06,0-.09,0,0,0-.05l0,0h0s0,0,0,0h-.07l-.05,0s0,0,0,0l-.07-.1s0-.07,0-.08l0,0s0,0,0,0l-.06,0s0,0,0,0l-.08-.05s0,0,0-.05,0,0,0,0,0,0,0,0,0,0,0,0,0,0,0,0,0,0,0,0h0s0,0,0,0,0,0,0,0,0,0,0,0a.07.07,0,0,1,0,0l.07,0s0,0,0,0h.05s0,0,0,0,.06,0,.07,0H85l.07,0s0,0,.06,0h0s0,0,0,0a0,0,0,0,1,0,0s0,0,0,0,0,0,0,0,0,0,0,0,0,0,0,0a0,0,0,0,1,0,0l.07,0s0,0,0,0l.08,0s0,0,0,0,0,0,0,0,0,0,0-.05a0,0,0,0,0,0,0s0-.05,0-.06h.06s0,0,0,0,0,0,0,0h0s.08,0,.09,0,0,0,0,0,0,0,0,0h.08s0,0,0,0a.07.07,0,0,1,0,0,.14.14,0,0,0,0-.07.05.05,0,0,1,0,0s0,0,0,0l0,0s0,0,0,0,0,0,0,0,0,0,0,0h0l0,0L86,74l0,0s0,0,0,0,0,0,0,0,0,0,0,0,0,0,0,0a.73.73,0,0,1,.15,0h0s0-.07,0-.08h.06s0,0,0,0a.17.17,0,0,1,0-.08.05.05,0,0,0,0,0s0,0,0-.05,0,0,0,0h.14s0,0,0,0,0,0,0,0,0,0,0-.05a.06.06,0,0,1,0-.06h0l.06,0,.1,0h.29s0,0,0,0a.14.14,0,0,1,0-.06s0,0,0,0,0,0,0,0,0,0,0,0,0,0,0-.06,0,0,0,0l0,0s0,0,0-.06,0-.05,0-.05,0,0,0,0a.07.07,0,0,0,0,0s0,0,0,0,0,0,0,0,0,0,0,0h0s0,0,0,0h0s0,0,0-.05a.07.07,0,0,1,.05,0s0,0,0-.06a0,0,0,0,1,0,0s0,0,0,0Z"/><path class="cls-3" d="M85.45,75.11a.09.09,0,0,1,0,0s0,0,0,0h0a0,0,0,0,1,0,0s0,0,0,0l0,0h0s0,0,0,0,0,0,0,.06,0,0,0,0,0,0,0,0h-.09s0,0,0,0a.1.1,0,0,1,0,0l-.08.06H85s0,0,0,0h.07l.08-.05h.06l0,0,0,0,0,0s0,0,0,0l0,0h.05s0,0,0,0Z"/><path class="cls-3" d="M81.27,73.78h-.13v0s0,0,0,0l0,0,0,0s0,0,0,0,0,0,0,0,0,0,0,0l0,0v0Z"/><path class="cls-3" d="M78.87,75.54l0,0,0,0s0,0,0,0,0,0,0,0l0,0s0,0,0,0l-.05-.06h0l0,0h-.08l-.08,0s0,0,0,0,0,0,0,0,0,0,0,0a0,0,0,0,1,0,0h.08l0,0a.37.37,0,0,1,.11-.08c.08,0,.11,0,.12,0l.06.07s0,.06,0,.06,0,0,0,0a.11.11,0,0,1,0,.06s0,0,0,0h0s0,0,0,0l0,0s0,0,0,0,0,0,0,0l0,0s0,0,0,0,0,0,0,0,0,0,0,0,0,0,0,0l0,0s0,0,0,0,0,0,0,0,0,0,0,0h0Z"/><path class="cls-3" d="M79.05,75.27H79s0,0,0,0,0,0,0,0,0,0,0,0l0,0Z"/><path class="cls-3" d="M79.07,75.28s0,0,0,0h0v0Z"/><path class="cls-3" d="M79.22,75.25h0s0,0,0,0h0s0,0,0,0Z"/><path class="cls-3" d="M79.33,75.23h-.05s0,0,0,0h.05l0,0h0l0,0Z"/><path class="cls-3" d="M82.48,76.13s0,0,0,0,0,0,0-.06,0,0,0,0h0v0s0,0,0,0,0,0,0,0,0,0,0,0l0,0a.28.28,0,0,1,0,0Z"/><path class="cls-3" d="M82.52,76l0,0h0s0,0,0,0,0,0,0,0Z"/><path class="cls-3" d="M82.54,75.89s0,0,0,0,0,0,0,0Z"/><path class="cls-3" d="M82.25,75.82s0,0,0,0,0,0,0,0h0s0,0,0,0Z"/><path class="cls-3" d="M82,75.9s0,0,0,0,0,0,0,0a.05.05,0,0,0,0,0s0,0,0,0,0,0,0,0,0,0,0,0l0,0s0,0,0,0Z"/><path class="cls-3" d="M82.09,76.16h0a0,0,0,0,1,0,0Z"/><path class="cls-3" d="M81.89,76.52l0,0v0h0v0s0,0,0,0,0,0,0,0Z"/><path class="cls-3" d="M81.91,76.49h0s0,0,0,0,0,0,0,0,0,0,0,0l0,0s0,0,0,0h0v0a.2.2,0,0,0,0,0v0h0v0s0,0,0,0,0,0,0,0a.08.08,0,0,1,0,0s0,0,0,0,0,0,0,0v0s0,0,0,0a.13.13,0,0,0,0,0s0,0,0,0h0l0,0,0,0s0,0,0,0,0,0,0,0,0,0,0,0l0,0h0s0,0,0,0h0s0,0,0,0,0,0,0,0,0,0,0,0v0h0l0,0,0,0s0,0,0,0a0,0,0,0,0,0,0v0s0,0,0,0,0,0,0,0v0h0l0,0s0,0,0,0h0Z"/><path class="cls-3" d="M81.84,76.41s0,0,0,0,0,0,0,0Z"/><path class="cls-3" d="M81.84,76.38h0Z"/><path class="cls-3" d="M81.26,76.39h-.05s0,0,0,0v0s0,0,0,0l0,0s0,0,0,0,0,0,0,0,0,0,0,0a.05.05,0,0,0,0,0s0,0,0,0,0,0,0,0Z"/><path class="cls-3" d="M81.57,76.4h0s0,0,0,0v0s0,0,0,0h0s0,0,0,0,0,.06,0,.05Z"/><path class="cls-3" d="M81.59,76.29h-.06a.14.14,0,0,0,0,0s0,0,0,0,0,0,0,0h0l0,0a0,0,0,0,0,0,0Z"/><path class="cls-3" d="M81.57,76.18h-.08l0,0h0l0,0v0h0s0,0,0,0h0s0,0,0,0h0s0,0,0,0h0s0,0,0,0l0,0s0,0,0,0h0l0,0h0s0,0,0,0l0,0,0,0v0Z"/><path class="cls-3" d="M81.7,76.16h0a.08.08,0,0,1,0,0,.43.43,0,0,0,0,0s0,0,0,0,0,0,0,0l0,0,0,0s0,0,0,0Z"/><path class="cls-3" d="M81.31,76l0,0h0a.08.08,0,0,0,0,0s0,0,0,0l0,0s0,0,0,0,0,0,0,0,0,0,0,0Z"/><path class="cls-3" d="M81.53,76h0a0,0,0,0,1,0,0h0s0,0,0,0Z"/><path class="cls-3" d="M81.6,76.07h0s0,0,0,0h0s0,0,0,0h0s0,0,0,0Z"/><path class="cls-3" d="M81.82,76h0s0,0,0,0Z"/><path class="cls-3" d="M81.81,76l0,0h0s0,0,0,0l0,0,0,0h0s0,0,0,0h0s0,0,0,0,0,0,0,0h0s0,0,0,0h0s0,0,0,0h0l0,0,0,0h0s0,0,0,0h0s0,0,0,0h0l0,0s0,0,0,0,0,0,0,0,0,0,0,0a.12.12,0,0,1,0,0v0l0,0h0l0,0h0v0h0s0,0,0,0l0,0h0s0,0,0,0Z"/><path class="cls-3" d="M73.82,83.81a.19.19,0,0,1-.09.06h-.11a.14.14,0,0,1,0-.07.07.07,0,0,1,0-.06s.07,0,.09,0,.09,0,.11,0a.09.09,0,0,1,0,.08Z"/><path class="cls-3" d="M73.67,83.19l-.09,0s0,0,0,0l0,0h0s0,0,0,0Z"/><path class="cls-3" d="M76.33,82.93l-.08,0,0,0h-.06v0s0,0,0,0,0,0,0,0v0h0a.09.09,0,0,0,0,0h0s0,0,0,0h0s0,0,0,0h0a.06.06,0,0,0,0,0s0,0,0,0,0,.05,0,.05h.06s0,0,0,0h0v0h0l0,0h0s0,0,0,0a.09.09,0,0,1,0,0s0,0,0,0Z"/><path class="cls-3" d="M76.37,82.9h0v0h0l0,0v0h0s0,0,0,0h0a0,0,0,0,1,0,0l0,0s0,0,0,0a.06.06,0,0,0,0,0,.14.14,0,0,1,0,0,.05.05,0,0,1,0,0h.1l.07,0,.06,0,.06,0s0,0,0,0l0,.05a.1.1,0,0,1,0,.05.15.15,0,0,0,0,0s0,0,0,0l0,0h0l-.06,0-.07,0-.05,0Z"/><path class="cls-3" d="M77.13,83.51a.14.14,0,0,1-.08,0s0,0,0,0l0,0-.06,0,0,0h0l0-.07a.46.46,0,0,1,0-.06l0,0s0,0,0,0,0,0,0,0,0,0,0,0a.07.07,0,0,0,0,0l0,0h0s0,0,0,0h0s0,0,0,0,0,0,0,0l0,0s0,0,0,0a.06.06,0,0,0,0,0l0-.08,0,0,0,0s0,0,0,0,0-.05,0-.06h0s0,0,0,0l0,0s0,0,0,0h0l0,0s0,0,0,0h0v0h0s0,0,0,0,0,0,0,0,0-.07,0-.08,0,0,0,0,0,0,0,0,0,0,0,0a0,0,0,0,1,0,0s0,0,0,0,0,0,0,0a.12.12,0,0,0,0-.06s0,0,0,0,0,0,0-.05l0,0a.07.07,0,0,1,0,0s0,0,0,0,0,0,0,0,0,0,0,0l0,0s0,0,0,0,0,0,0,0,0,0,0,0l0,0,0,0s0,0,0,0a.19.19,0,0,0,0,0s0,0,0,0a.09.09,0,0,1,0,0,.09.09,0,0,0,0,0l0,0,0,0s0,0,0,0,0,0,0,0,0,0,0,0,0,0,0,0h0l0,0s0,0,0,0,0,0,0,0a.23.23,0,0,1,0,.06.4.4,0,0,0,0,.07s0,0,0,0a.15.15,0,0,0,0,.06l.05,0s0,0,0,0l0,0,0,0s0,0,0,0,0,0,0,0,0,.05,0,.06h0s0,0,0,0h.06s0,0,0,0,.1,0,.12.05,0,.05,0,.06.06.05.07.05h.06l.07,0h0l.05.06,0,0,0,.06,0,0,0,0,0,0h0l0,0s0,0,0,0,0,0,0,0l0,0s0,0,0,0h0l0,0h-.2l0,0h0s0,0,0,0l0,0h-.13s0,0,0,0h-.08a.2.2,0,0,1-.08,0Z"/><path class="cls-3" d="M76.82,83.47s0,0,0,0,0,0-.06,0a.1.1,0,0,1,0,0v0h0l0,0,0,0v0Z"/><path class="cls-3" d="M76.79,82.19h0s0,0,0,0l0,0,0,0s0,0,0,0l0,0s0,0,0,0l0,0v0Z"/><path class="cls-3" d="M77.11,82.24v0l0,0s0,0,0,0l0,0Z"/><path class="cls-3" d="M64.22,84.3h-.09l-.06,0h0l0,0h0l0,0s0,0,0,0a0,0,0,0,1,0,0h0s0,0,0,0,0,0,0,0l.05,0h0s0,0,0,0l.05,0,0,0s0,0,0,0h.06l.05,0,0,0,0,0h.07l.07,0,0,0h0s0,0,0,0l0,0v0l0,0,0,0,0,0,0,0h0l0,0h-.11Z"/><path class="cls-3" d="M68.72,87.51H68.5s0,0,0,0v0h0l.06,0h.09l.08,0s0,0,0,0l0,0s0,0,0,0Z"/><path class="cls-3" d="M67.37,86.31h-.14s.05,0,.05,0,0,0,0,0h0s0,0,0,0Z"/><path class="cls-3" d="M68.3,86.14h-.06l-.07,0h-.08A.27.27,0,0,1,68,86s0-.07,0-.07h0l0,0h0s0,0,0,0h0v0s0,0,0,0,0,0,0,0l0,0h0l0,0,0,0v0s0,0,0,0v0h0s0,0,0,0l0,0s0,0,0,0l0,0,0,0a.08.08,0,0,1,0,0s0,0,0,0,0,0,0,0h0s0,0,0,0h0s0,0,0,0v0h0a0,0,0,0,1,0,0s0,0,0,0h0v0h0l0,0v0l0,0s0,0,0,0v0h0s0,0,0,0h0a.19.19,0,0,0,0,0s0,0,0,0h0v0s0,0,0,0,0,0,0,0,0,0,0,0l0,0a.2.2,0,0,0,0,.05s0-.05,0-.06v-.07l0,0s0,0,0-.05,0,0,0,0,0,0,0,0l0,0v0h0l0,0v0s0,0,0,0,0,0,0-.05.06,0,.06,0,0,0,0,0v0s0,0,0,0,0,0,0,0,0,0,0,0,0,0,0,0,0,0,0,0l0,0,0,0s0,0,0,0h.06a0,0,0,0,1,0,0s0,0,0,.05h0l0,0h0s0,0,0,0a.13.13,0,0,1,0,0s0,0,0,0,0,0,0,0h0v0l0,0,0,0s0,0,0,0,0,0,0,0h.08s0,0,0,0l.06.06,0,0s0,0,0,0l0,0s0,0,0,0,0,0,0,0l0,0h0v0l0,0h0s0,0,0,0h0s0,0,0,0h0l0,0v0h0s0,0,0,0,.05,0,.07,0h0l0,0a0,0,0,0,0,0,0l0,0s0,0,0,0,0,0,0,0h.05s0,0,0,0,0,0,0,0,0,0,0,0,0,0,0,0,0,0,0,0h.07l0,0,0,0s0,0,0,0l0,0h.07s0,0,0,0l0,0s0,0,0,0h0l0,0v0a.06.06,0,0,1,0,0,0,0,0,0,0,0,0s0,0,0,0h0a0,0,0,0,0,0,0s0,0,0,0,0,0,0,0l0,0,0,0s0,0,0,0h0l0,0s0,0,0,0,0,0,0,0,0,0,0,0,0,0,0,0,0,0,0,0v0l0,0s0,0,0,0,0,0,0,0,0,0,0,0,0,0,0,0,0,0,0,0,0,0,0,0h0l0,0h-.08l-.05,0,0,0h0s0,0,0,0h0l0,0s0,0,0,0h0v0h0a.05.05,0,0,1,0,0l0,0s0,0,0,0,0,0,0,0h-.1l0,0,0,0a.23.23,0,0,0-.08,0h-.15l-.07,0h-.1l-.12,0,0,0,0,0,0,0-.05,0h0s0,0,0,0a.09.09,0,0,0,0,0s0,0,0,0,0,0,0,0,0,0,0,0Z"/><path class="cls-3" d="M68.45,85.71h0l-.07,0,0,0s0,0,0,0,0,0,0,0h.05s0,0,0,0l0,0h0l0,0s0,0,0,0,0,0,0,0Z"/><path class="cls-3" d="M68.3,85.59h0l0,0,0,0h.07s0,0,0,0h0s0,0,0,0Z"/><path class="cls-3" d="M69.94,86.5s0,0,0,0a.32.32,0,0,0,0-.06l0,0s0,0,0-.05a.1.1,0,0,1,0,0l.09,0h0s0,0,0,0a.08.08,0,0,1,0,.07s0,0,0,.05l0,0Z"/><path class="cls-3" d="M69.65,86.4l0,0h0l0,0h0s0,0,0,0a.07.07,0,0,0,0,0v0l0,0h0s0,0,0,0Z"/><path class="cls-3" d="M69.5,86.57l0,0,0,0,0,0h.05v0a0,0,0,0,1,0,0s0,0,0,0Z"/><path class="cls-3" d="M69.92,85.83a0,0,0,0,1,0,0l0,0h0s0,0,0,0h-.19s0,0,0,0h0l.06,0h0s0,0,0,0l0,0,0,0h.09l0,0a0,0,0,0,1,0,0,0,0,0,0,0,0,0v0l0,0s0,0,0,0v0Z"/><path class="cls-3" d="M69.93,85.62h0l0,0,0,0,0,0Z"/><path class="cls-3" d="M69.51,85.75h0l0,0Z"/><path class="cls-3" d="M68.9,85h0l0,0s0,0,0,0h0s0,0,0,0,0,0,0,0Z"/><path class="cls-3" d="M70.3,85.27l0-.06h0s0,0,0,0h0a.1.1,0,0,1,0,0s0,0,0,0,0,0,0,0h0l0,0s0,0,0,0l0,0h.09l0,0v0s0,0,0,0h.06l0,0s0,0,0,0,0,0,0,0,0,0,0,0l0,0s0,0,0,0l0,0h0l0,0,.08,0,.06,0s0,0,0,0l0,.05s0,0,0,0h0l0,0,0,0,0,0,0,0h.14l0,0s0,0,.05,0h0s0,0,0,0l0,0h.07s0,0,0,0a.4.4,0,0,1,0,0h0s0,0,0,0l0-.07s0,0,0,0,0,0,0,0v0s0,0,0,0h.06l0,0,0,0,0,0,0,0,0,0,0,0s0,0,0,0h0a0,0,0,0,1,0,0,.16.16,0,0,1,0-.06l0-.05s0,0,0-.05h0a.12.12,0,0,0,0-.05l0,0v0h0s0,0,0,0l.06-.05,0,0a.48.48,0,0,1,0-.08l0,0v0s0-.09,0-.1l0,0,0,0h.11s0,0,0,0,0,0,0,0v0l0,.06,0,0a.37.37,0,0,1,0,0v0l0,0,0,0,0,0,0,0,0,.05v0a.16.16,0,0,0,0,.05l0,0a.2.2,0,0,1,0,0l-.05.05,0,0,0,0h0l0,.05v.05s0,0,0,0,0,0,0,0,0,0,0,0h0l0,0,0,0,0,0a.31.31,0,0,0,0,.08l0,0s0,0,0,.05h0a.17.17,0,0,0,0,.07.49.49,0,0,1,0,.09s0,.11,0,.13,0,0,0,0,0,0,0,0,0,0,0,0a.43.43,0,0,0,0,.07.15.15,0,0,1,0,0l0,0,0,0s-.08,0-.1,0l0,0H71a.08.08,0,0,0,0,0v0l0,0s0,0,0,0h0l-.05,0h-.08l0,0,0,0a0,0,0,0,1,0,0s0,0,0,0l0,0,0,0h-.06l0,0,0,0s0,0,0,0l.05-.06h0l.06-.06s0,0,0,0,0,0,0,0a.07.07,0,0,0,0,0,.08.08,0,0,0,0,0h0s0,0,0,0l0,0s0,0,0,0l0,0s0,0,0,0H70.4l0,0h0l0,0s0,0,0,0Z"/><path class="cls-3" d="M70.72,85.8h0l0,0Z"/><path class="cls-3" d="M70.4,85.86s0,0,0,0l0,0s-.05,0-.06,0a.14.14,0,0,1,0,0v0l0,0a.34.34,0,0,1,0,0s0,0,0,0a.09.09,0,0,1,0,0l0,0a0,0,0,0,1,0,0v0Z"/><path class="cls-3" d="M85.11,71.83l0,0H85s0,0,0,0,0,0,0,0h0s0,0,0,0Z"/><path class="cls-3" d="M85.22,71.7H85.1l0,0h0v0a.5.5,0,0,1,0,0s0,0,0,0,0,0,0,0h0s0,0,0,0,0,0,0,0l0,0h0l0,0v0l0,0h0l0,0h0s0,.06,0,.06l0,0v0a.06.06,0,0,1,0,0,0,0,0,0,0,0,0v0Z"/><path class="cls-3" d="M85.23,71.31h-.1a0,0,0,0,1,0,0h.1Z"/><path class="cls-3" d="M85.06,71.18h0v0l0,0,0,0a0,0,0,0,1,0,0h0l0,0h0s0,0,0,0Z"/><polygon class="cls-3" points="84.96 71.2 84.95 71.2 84.96 71.2 84.96 71.2"/><path class="cls-3" d="M85.09,71.19h0a.18.18,0,0,0,0,0l0,0a.29.29,0,0,1,0-.06s.07-.06.07-.08a.09.09,0,0,1,0-.05l.07-.06,0,0s0,0,0,0,.08,0,.08-.06,0,0,0,0a.05.05,0,0,0,0,0h0l.08,0s0,0,0,0,0,0,0,0h0l0,0h0l0,0v0s0,0,0,0l0,0a0,0,0,0,0,0,0s0,0,0,0a.2.2,0,0,0,0,0l0,0,0,0h-.06s0,0,0,0h0l0,0s0,0,0,0,0,0,0,0l0,0h-.07l0,0h0a.13.13,0,0,0,0,0s0,0,0,0l0,0,0,0Z"/><path class="cls-3" d="M84.52,73H84.4l-.07,0h-.22l0,0s0,0,0,0,0,0,0,0v0l.05,0h.17l0,0,.06,0h0l0,0,0,0h0s0,0,0,.06,0,0,0,0,0,0,0,0Z"/><path class="cls-3" d="M84.71,73.47h0a.06.06,0,0,1,0,0s0,0,0,0v0s0,0,0,0l0,0h0l0,0v0s0,0,0,0l0,0,0,0v0Z"/></g></g></svg>